<?xml version="1.0" encoding="utf-8"?> <!-- Generator: IcoMoon.io --> <!DOCTYPE svg PUBLIC "-//W3C//DTD SVG 1.1//EN" "http://www.w3.org/Graphics/SVG/1.1/DTD/svg11.dtd"> <svg width="32" height="32" viewBox="0 0 32 32" xmlns="http://www.w3.org/2000/svg" xmlns:xlink="http://www.w3.org/1999/xlink" fill="#000000"><g><path d="M 30,8c 1.105,0, 2-0.895, 2-2L 32,2 l-4,0 L 28,0 L 2,0 C 0.9,0,0,0.9,0,2l0,28 c0,1.1, 0.9,2, 2,2l 26,0 L 28,24 l 2,0 c 1.105,0, 2-0.895, 2-2l0-4 l-4,0 l0-2 l 2,0 c 1.105,0, 2-0.895, 2-2l0-4 l-4,0 l0-2 L 30,8 z M 18,8.010 c 2.203,0, 3.99,1.786, 3.99,3.99s-1.786,3.99-3.99,3.99c-2.203,0-3.99-1.786-3.99-3.99 S 15.797,8.010, 18,8.010z M 8,30L 6,30 L 6,2 l 2,0 L 8,30 z M 24,24L 12,24 l0-2 c0-2.209, 1.791-4, 4-4l0,0 l 4,0 c 2.209,0, 4,1.791, 4,4 L 24,24 z"></path></g></svg>