<?xml version="1.0" encoding="utf-8"?> <!-- Generator: IcoMoon.io --> <!DOCTYPE svg PUBLIC "-//W3C//DTD SVG 1.1//EN" "http://www.w3.org/Graphics/SVG/1.1/DTD/svg11.dtd"> <svg width="32" height="32.035438537597656" viewBox="0 0 32 32.035438537597656" xmlns="http://www.w3.org/2000/svg" xmlns:xlink="http://www.w3.org/1999/xlink" fill="#000000"><g><path d="M 27,10c-1.1,0-2,0.9-2,2l0,8 c0,1.1, 0.9,2, 2,2s 2-0.9, 2-2L 29,12 C 29,10.9, 28.1,10, 27,10zM 3,10c-1.1,0-2,0.9-2,2l0,8 c0,1.1, 0.9,2, 2,2s 2-0.9, 2-2L 5,12 C 5,10.9, 4.1,10, 3,10zM 6,23c0,1.657, 1.343,3, 3,3l 1,0 l0,4 c0,1.1, 0.9,2, 2,2s 2-0.9, 2-2l0-4 l 2,0 l0,4 c0,1.1, 0.9,2, 2,2s 2-0.9, 2-2 l0-4 l 1,0 c 1.657,0, 3-1.343, 3-3L 24,12 L 6,12 L 6,23 zM 18.706,2.797l 1.266-2.431c 0.064-0.122, 0.016-0.274-0.106-0.337s-0.274-0.016-0.337,0.106l-1.285,2.468 C 17.237,2.214, 16.144,2, 15,2c-1.144,0-2.237,0.214-3.244,0.603L 10.472,0.134c-0.064-0.122-0.215-0.17-0.337-0.106 s-0.17,0.215-0.106,0.337l 1.266,2.432c-2.832,1.282-4.883,3.987-5.238,7.203l 17.889,0 C 23.589,6.784, 21.538,4.079, 18.706,2.797z M 11,8.45c-0.801,0-1.45-0.649-1.45-1.45c0-0.801, 0.649-1.45, 1.45-1.45 s 1.45,0.649, 1.45,1.45C 12.45,7.801, 11.801,8.45, 11,8.45z M 19,8.45c-0.801,0-1.45-0.649-1.45-1.45 c0-0.801, 0.649-1.45, 1.45-1.45s 1.45,0.649, 1.45,1.45C 20.45,7.801, 19.801,8.45, 19,8.45z"></path></g></svg>