<?xml version="1.0" encoding="utf-8"?> <!-- Generator: IcoMoon.io --> <!DOCTYPE svg PUBLIC "-//W3C//DTD SVG 1.1//EN" "http://www.w3.org/Graphics/SVG/1.1/DTD/svg11.dtd"> <svg width="32" height="32" viewBox="0 0 32 32" xmlns="http://www.w3.org/2000/svg" xmlns:xlink="http://www.w3.org/1999/xlink" fill="#000000"><g><path d="M 16,6 C 14.283,6 12.625,6.271 11.072,6.804 C 9.612,7.306 8.313,8.015 7.209,8.912 C 5.139,10.593 4,12.755 4,15 C 4,16.259 4.35,17.481 5.039,18.63 C 5.75,19.815 6.82,20.898 8.133,21.763 C 9.081,22.387 9.719,23.386 9.888,24.509 C 9.944,24.884 9.979,25.262 9.993,25.638 C 10.227,25.445 10.454,25.237 10.677,25.014 C 11.432,24.259 12.451,23.842 13.505,23.842 C 13.673,23.842 13.842,23.853 14.010,23.874 C 14.666,23.958 15.335,24 16,24 C 17.717,24 19.375,23.729 20.928,23.196 C 22.388,22.694 23.688,21.985 24.791,21.088 C 26.86,19.407 28,17.245 28,15 C 28,12.755 26.86,10.593 24.791,8.912 C 23.688,8.015 22.388,7.306 20.928,6.804 C 19.375,6.271 17.717,6 16,6 Z M 16,2 L 16,2 C 24.837,2 32,7.82 32,15 C 32,22.18 24.837,28 16,28 C 15.151,28 14.318,27.946 13.505,27.842 C 10.069,31.279 5.966,31.895 2,31.986 L 2,31.145 C 4.142,30.096 6,28.184 6,26 C 6,25.695 5.976,25.396 5.932,25.103 C 2.314,22.72 0,19.080 0,15 C 0,7.82 7.163,2 16,2 Z"></path></g></svg>