<?xml version="1.0" encoding="utf-8"?> <!-- Generator: IcoMoon.io --> <!DOCTYPE svg PUBLIC "-//W3C//DTD SVG 1.1//EN" "http://www.w3.org/Graphics/SVG/1.1/DTD/svg11.dtd"> <svg width="32" height="32" viewBox="0 0 32 32" xmlns="http://www.w3.org/2000/svg" xmlns:xlink="http://www.w3.org/1999/xlink" fill="#000000"><g><path d="M 10,12L 14,12L 14,16L 10,16zM 16,12L 20,12L 20,16L 16,16zM 22,12L 26,12L 26,16L 22,16zM 4,24L 8,24L 8,28L 4,28zM 10,24L 14,24L 14,28L 10,28zM 16,24L 20,24L 20,28L 16,28zM 10,18L 14,18L 14,22L 10,22zM 16,18L 20,18L 20,22L 16,22zM 22,18L 26,18L 26,22L 22,22zM 4,18L 8,18L 8,22L 4,22zM 26,0l0,2 l-4,0 L 22,0 L 8,0 l0,2 L 4,2 L 4,0 L0,0 l0,32 l 30,0 L 30,0 L 26,0 z M 28,30L 2,30 L 2,8 l 26,0 L 28,30 z"></path></g></svg>