<?xml version="1.0" encoding="utf-8"?> <!-- Generator: IcoMoon.io --> <!DOCTYPE svg PUBLIC "-//W3C//DTD SVG 1.1//EN" "http://www.w3.org/Graphics/SVG/1.1/DTD/svg11.dtd"> <svg width="32" height="32" viewBox="0 0 32 32" xmlns="http://www.w3.org/2000/svg" xmlns:xlink="http://www.w3.org/1999/xlink" fill="#000000"><g><path d="M 28,4l-3,0 l0,1 c0,1.103-0.897,2-2,2s-2-0.897-2-2L 21,4 L 11,4 l0,1 c0,1.103-0.897,2-2,2s-2-0.897-2-2L 7,4 L 4,4 c-1.1,0-2,0.9-2,2l0,22 c0,1.1, 0.9,2, 2,2l 24,0 c 1.1,0, 2-0.9, 2-2L 30,6 C 30,4.9, 29.1,4, 28,4z M 28,27.996 c-0.001,0.001-0.002,0.003-0.004,0.004L 4.004,28 c-0.001-0.001-0.003-0.002-0.004-0.004L 4,10 l 24,0 L 28,27.996 zM 9,6c 0.552,0, 1-0.448, 1-1L 10,1 c0-0.552-0.448-1-1-1s-1,0.448-1,1l0,4 C 8,5.552, 8.448,6, 9,6zM 23,6c 0.552,0, 1-0.448, 1-1L 24,1 c0-0.552-0.448-1-1-1s-1,0.448-1,1l0,4 C 22,5.552, 22.448,6, 23,6zM 18,12L 8,12L 8,14L 16,14L 16,18L 8,18L 8,20L 16,20L 16,24L 8,24L 8,26L 18,26 zM 22,26L 24,26L 24,12L 20,12L 20,14L 22,14 zM 27.25,30.75L 4.75,30.75 c-1.1,0-2-0.65-2-1.75l0,1 c0,1.1, 0.9,2, 2,2l 22.5,0 c 1.1,0, 2-0.9, 2-2l0-1 C 29.25,30.1, 28.35,30.75, 27.25,30.75z"></path></g></svg>