<?xml version="1.0" encoding="utf-8"?> <!-- Generator: IcoMoon.io --> <!DOCTYPE svg PUBLIC "-//W3C//DTD SVG 1.1//EN" "http://www.w3.org/Graphics/SVG/1.1/DTD/svg11.dtd"> <svg width="32" height="32" viewBox="0 0 32 32" xmlns="http://www.w3.org/2000/svg" xmlns:xlink="http://www.w3.org/1999/xlink" fill="#000000"><g><path d="M 9.5,19c0,3.59, 2.91,6.5, 6.5,6.5s 6.5-2.91, 6.5-6.5s-2.91-6.5-6.5-6.5S 9.5,15.41, 9.5,19z M 30,8L 23,8 c-0.5-2-1-4-3-4L 12,4 c-2,0-2.5,2-3,4L 2,8 c-1.1,0-2,0.9-2,2l0,18 c0,1.1, 0.9,2, 2,2l 28,0 c 1.1,0, 2-0.9, 2-2L 32,10 C 32,8.9, 31.1,8, 30,8z M 16,27.875c-4.902,0-8.875-3.973-8.875-8.875c0-4.902, 3.973-8.875, 8.875-8.875c 4.902,0, 8.875,3.973, 8.875,8.875 C 24.875,23.902, 20.902,27.875, 16,27.875z M 30,14l-4,0 l0-2 l 4,0 L 30,14 z"></path></g></svg>