<?xml version="1.0" encoding="utf-8"?> <!-- Generator: IcoMoon.io --> <!DOCTYPE svg PUBLIC "-//W3C//DTD SVG 1.1//EN" "http://www.w3.org/Graphics/SVG/1.1/DTD/svg11.dtd"> <svg width="32" height="32" viewBox="0 0 32 32" xmlns="http://www.w3.org/2000/svg" xmlns:xlink="http://www.w3.org/1999/xlink" fill="#000000"><g><path d="M 30,27l-6-5l0,5 c0,1.104-0.896,2-2,2L 2,29 c-1.104,0-2-0.896-2-2L0,10 c0-1.104, 0.896-2, 2-2 l 7.698,0 L 6.74,4L 1,4 C 0.448,4,0,3.553,0,3s 0.448-1, 1-1l 6,0 c 0.552,0, 1,0.447, 1,1l 4.072,5L 22,8 c 1.104,0, 2,0.896, 2,2l0,5 l 6-6c 1.104,0, 2,0.896, 2,2 l0,14 C 32,26.104, 31.229,27, 30,27z M 21,10l-6,0 c-0.553,0-1,0.447-1,1s 0.447,1, 1,1l 6,0 c 0.553,0, 1-0.447, 1-1S 21.553,10, 21,10z"></path></g></svg>