<?xml version="1.0" encoding="utf-8"?> <!-- Generator: IcoMoon.io --> <!DOCTYPE svg PUBLIC "-//W3C//DTD SVG 1.1//EN" "http://www.w3.org/Graphics/SVG/1.1/DTD/svg11.dtd"> <svg width="39.597938537597656" height="32" viewBox="0 0 39.597938537597656 32" xmlns="http://www.w3.org/2000/svg" xmlns:xlink="http://www.w3.org/1999/xlink" fill="#000000"><g><path d="M 20,18 C 23.308,18 26.308,19.346 28.481,21.519 L 25.654,24.346 C 24.206,22.897 22.206,22 20,22 C 17.794,22 15.794,22.897 14.346,24.346 L 11.519,21.519 C 13.692,19.346 16.692,18 20,18 ZM 5.858,15.858 C 9.635,12.080 14.658,10 20,10 C 25.342,10 30.365,12.080 34.142,15.858 L 31.314,18.686 L 31.314,18.686 C 28.292,15.664 24.274,14 20,14 C 15.726,14 11.708,15.664 8.686,18.686 L 5.858,15.858 ZM 30.899,4.201 C 34.234,5.612 37.228,7.63 39.799,10.201 L 39.799,10.201 L 36.971,13.029 C 32.438,8.496 26.411,6 20,6 C 13.589,6 7.563,8.496 3.029,13.029 L 0.201,10.201 C 2.772,7.63 5.766,5.612 9.101,4.201 C 12.554,2.741 16.221,2 20,2 C 23.779,2 27.446,2.741 30.899,4.201 ZM 18,28A2,2 2520 1 0 22,28A2,2 2520 1 0 18,28z"></path></g></svg>