<?xml version="1.0" encoding="utf-8"?> <!-- Generator: IcoMoon.io --> <!DOCTYPE svg PUBLIC "-//W3C//DTD SVG 1.1//EN" "http://www.w3.org/Graphics/SVG/1.1/DTD/svg11.dtd"> <svg width="32" height="32" viewBox="0 0 32 32" xmlns="http://www.w3.org/2000/svg" xmlns:xlink="http://www.w3.org/1999/xlink" fill="#000000"><g><path d="M 27.314,4.686 C 30.336,7.708 32,11.726 32,16 C 32,20.274 30.336,24.292 27.314,27.314 C 24.292,30.336 20.274,32 16,32 C 11.726,32 7.708,30.336 4.686,27.314 C 1.664,24.292 0,20.274 0,16 C 0,11.726 1.664,7.708 4.686,4.686 C 7.708,1.664 11.726,0 16,0 C 20.274,0 24.292,1.664 27.314,4.686 Z M 25.899,25.9 C 27.87,23.929 29.18,21.474 29.721,18.804 C 29.299,19.424 28.897,19.654 28.647,18.266 C 28.39,16.004 26.313,17.449 25.006,16.646 C 23.631,17.572 20.54,14.844 21.066,17.921 C 21.876,19.309 25.441,16.064 23.664,19.001 C 22.53,21.051 19.519,25.592 19.911,27.946 C 19.96,31.376 16.406,28.661 15.182,27.524 C 14.358,25.245 14.901,21.262 12.748,20.146 C 10.41,20.045 8.404,19.832 7.498,17.219 C 6.953,15.349 8.078,12.566 10.082,12.136 C 13.014,10.294 14.062,14.294 16.813,14.369 C 17.667,13.475 19.994,13.191 20.187,12.189 C 18.383,11.87 22.477,10.671 20.015,9.989 C 18.656,10.149 17.781,11.398 18.503,12.457 C 15.871,13.071 15.786,8.647 13.256,10.043 C 13.192,12.249 9.124,10.758 11.848,10.31 C 12.785,9.902 10.322,8.716 11.652,8.932 C 12.306,8.896 14.506,8.125 13.911,7.607 C 15.136,6.846 16.166,9.428 17.365,7.548 C 18.231,6.102 17.002,5.835 15.917,6.568 C 15.305,5.883 16.997,4.403 18.49,3.764 C 18.987,3.55 19.462,3.434 19.825,3.467 C 20.577,4.336 21.968,4.486 22.040,3.363 C 20.178,2.471 18.125,2 16,2 C 12.949,2 10.048,2.97 7.647,4.762 C 8.292,5.058 8.658,5.426 8.037,5.896 C 7.554,7.336 5.594,9.268 3.873,8.994 C 2.98,10.535 2.392,12.232 2.14,14.011 C 3.581,14.487 3.913,15.431 3.604,15.746 C 2.87,16.387 2.418,17.294 2.186,18.288 C 2.655,21.158 4.004,23.803 6.101,25.9 C 8.745,28.544 12.26,30 16,30 C 19.739,30 23.255,28.544 25.899,25.9 Z"></path></g></svg>