<?xml version="1.0" encoding="utf-8"?> <!-- Generator: IcoMoon.io --> <!DOCTYPE svg PUBLIC "-//W3C//DTD SVG 1.1//EN" "http://www.w3.org/Graphics/SVG/1.1/DTD/svg11.dtd"> <svg width="32" height="32" viewBox="0 0 32 32" xmlns="http://www.w3.org/2000/svg" xmlns:xlink="http://www.w3.org/1999/xlink" fill="#000000"><g><path d="M 16,32C 7.164,32,0,24.836,0,16C0,7.164, 7.164,0, 16,0c 8.836,0, 16,7.164, 16,16 C 32,24.836, 24.836,32, 16,32z M 28.968,14.659c 0.026-0.013, 0.040-0.035, 0.050-0.070c 0.021,0.111, 0.072,0.209, 0.154,0.281 c 0.002,0.010-0.003,0.008, 0.002,0.022c 0.008,0, 0.014-0.006, 0.021-0.006C 29.279,14.954, 29.383,15, 29.5,15c 0.18,0, 0.33-0.1, 0.418-0.241 c 0.006,0.007, 0.016,0.016, 0.021,0.024c-0.001-0.016-0.003-0.032-0.005-0.048C 29.973,14.664, 30,14.586, 30,14.5 c0-0.276-0.225-0.5-0.5-0.5c-0.176,0-0.322,0.096-0.412,0.232c-0.004-0.003,0-0.015-0.011-0.011 c 0.013-0.038-0.022-0.135-0.077-0.239L 29,14.5 C 29,14.557, 28.984,14.608, 28.968,14.659z M 5.992,14.509c0-0.151-0.344-0.408-0.433-0.408 c0-0.027-0.14-0.335-0.193-0.335c0-0.104-0.365-0.571-0.423-0.367c-0.038,0.132, 0.279,0.31, 0.279,0.463 c 0.059,0, 0.307,0.47, 0.356,0.552c 0.542,0.916-0.405,0.29-0.405-0.098c-0.121-0.060-0.312-0.521-0.312-0.647 c-0.071-0.057-0.281-0.502-0.264-0.502c0-0.292-0.161-0.432-0.481-0.432c-0.015-0.029-0.284-0.407-0.289-0.407 c0-0.12-0.216-0.492-0.336-0.551c0-0.249-0.128-0.556-0.071-0.814c0-0.271-0.014-0.578-0.106-0.856C 2.479,11.9, 2,13.892, 2,16 c0,6.041, 3.834,11.174, 9.196,13.137c 0.006-0.496, 0.043-1.090, 0.156-1.090c0-0.074, 0.063-0.384, 0.12-0.384c0-0.19, 0.023-0.419,0-0.647 c-0.071-0.143, 0.094-0.326, 0.144-0.551c 0.277-0.139, 0.081-1.533, 0.29-1.533c0-0.697, 0.156-1.103, 0.047-1.749 c 0.053,0-0.315-0.391-0.312-0.384c-0.353,0-0.6-0.566-0.6-0.814c-0.034-0.109-0.121-0.272-0.121-0.407 c 0.081,0-0.505-0.856-0.505-0.839c-0.31-0.172, 0.017-0.412, 0.048-0.694c-0.269-0.089, 0.003-0.815, 0.12-0.815 c 0.012-0.092, 0.060-0.155, 0.145-0.191c 0.060,0.239, 0.339-0.119, 0.12-0.119c0-0.158-0.018-0.496,0-0.575 c0-0.244-0.216-0.722-0.384-0.216c-0.18-0.089-0.634-0.073-0.673-0.359c 0.028-0.141-0.259-0.429-0.36-0.479 c 0.094-0.246-0.487-0.575-0.697-0.575c0-0.053-0.111-0.029-0.144-0.096c-0.214,0-0.263-0.288-0.505-0.288 c-0.279,0-0.56-0.191-0.817-0.191c-0.086-0.171-0.485-0.104-0.577-0.288c-0.209,0-0.291-0.396-0.297-0.542 C 6.385,15.131, 6.242,14.509, 5.992,14.509z M 26.248,6.484C 26.246,6.49, 26.25,6.486, 26.24,6.506c 0.015,0, 0.033,0.017, 0.050,0.024 C 26.275,6.515, 26.262,6.5, 26.248,6.484z M 26.549,6.815c 0.035,0.068, 0.061,0.131, 0.053,0.17c 0.035,0.001, 0.052-0.018, 0.080-0.025 C 26.639,6.911, 26.592,6.865, 26.549,6.815z M 27.418,11.371c 0.016-0.432-0.36-0.36-0.479-0.6c-0.124,0-0.169-0.096-0.337-0.096 c-0.109-0.037-0.195-0.011-0.258,0.078c-0.257,0.098-0.102-0.125-0.295-0.125c 0.009-0.247-0.089-0.315-0.361-0.288 c-0.156,0.352-0.396,0.563-0.36,0.959c 0.115,0.026, 0.095,0.052, 0.072,0.167c 0.153,0.008, 1.081-0.048, 1.081-0.144 c 0.032,0, 0.193,0.331, 0.193,0.048c 0.129,0, 0.197,0.303, 0.505,0.215C 27.179,11.647, 27.693,11.371, 27.418,11.371z M 27.467,16.474 c 0.018-0.088-0.044-0.127-0.096-0.216c 0.137,0-0.433-1.057-0.433-1.222c-0.087-0.043-0.198-0.345-0.218-0.455 c-0.117-0.078-0.238-0.334-0.288-0.479c-0.119-0.079-0.409-0.433-0.456-0.599c 0.172,0.019, 0.432,0.054, 0.432-0.168 c-0.116,0-0.133-0.143-0.023-0.143c-0.036-0.147, 0.078-0.253, 0.103-0.368c 0.030-0.139, 0.089-0.353, 0.089-0.519 c-0.165,0-0.205,0.028-0.336,0.072c0,0.097-0.293-0.024-0.336-0.024c-0.063-0.126-0.52,0.164-0.648-0.096 c-0.207-0.187-0.151-0.331-0.218-0.595c-0.034-0.134-0.217-0.142-0.328-0.164c-0.313-0.061-0.087,0.373-0.104,0.472 c 0.192,0-0.121,0.238-0.121,0.359c-0.324-0.070-0.216-0.431-0.407-0.527c-0.057-0.096-0.012-0.168-0.145-0.168 c0-0.128, 0.068-0.36-0.072-0.407c0-0.062-0.272-0.087-0.312-0.168c-0.172,0-0.572-0.65-0.695-0.431 c-0.077,0.14, 0.065,0.174, 0.094,0.288c 0.249-0.049, 0.225,0.41, 0.529,0.359c0,0.064, 0.008,0.129, 0.023,0.192 c 0.225-0.053, 0.199,0.167, 0.312,0.167c-0.082,0.109-0.342-0.174-0.271,0.064c 0.041,0.138, 0.018,0.256-0.161,0.391 c0-0.149-0.012-0.551-0.168-0.551c-0.106-0.212-0.421-0.161-0.554-0.359c-0.108,0-0.15-0.336-0.336-0.359 c-0.035,0.049-0.166,0.096-0.217,0.096c-0.101,0.203-0.672,0.021-0.672,0.048c-0.009,0.002-0.32,0.762-0.338,0.862 c-0.035,0.215-0.208,0.219-0.26,0.423c-0.026,0.102-0.653,0.054-0.653,0.129c-0.271-0.090-0.505-0.28-0.505-0.575 c-0.022,0, 0.051-0.753, 0.097-0.863c 0.055,0.015, 0.066,0.034, 0.097,0.096c 0.166-0.062, 0.553,0.041, 0.553-0.144 c 0.161,0.004, 0.209,0.068, 0.144,0.192c 0.15,0.028, 0.409,0.066, 0.409-0.144c-0.088,0-0.097-0.008-0.097-0.096 c 0.288-0.299-0.216-0.569-0.216-0.718c-0.102-0.034-0.31-0.255-0.162-0.172c 0.125,0.069, 0.582,0.212, 0.402-0.092 c 0.012-0.004, 0.020-0.012, 0.023-0.023c 0.051,0.036, 0.266,0.257, 0.266,0.048c 0.059,0, 0.287-0.144, 0.096-0.144 c 0.018-0.108, 0.014-0.198, 0.023-0.264c 0.305,0.164, 0.135-0.112, 0.289-0.215c0,0.199, 0.164-0.096, 0.264-0.096 c 0.119-0.177, 0.391-0.040, 0.457-0.24c-0.147-0.048-0.12-0.416-0.12-0.55c 0.177,0.029, 0.374-0.239, 0.401-0.055 c 0.010,0.071, 0.019,0.267, 0.055,0.294c 0.263,0.138, 0.193-0.079, 0.193-0.215c-0.088,0-0.205-0.308-0.217-0.456 c-0.072,0.010-0.188,0.040-0.217,0.095c-0.262,0-0.44-0.095-0.648-0.095c-0.016-0.032-0.266-0.312-0.24-0.312 c-0.146-0.251, 0.146-0.178, 0.192-0.19c0-0.238, 0.991-0.196, 1.034-0.576c-0.326,0, 0.336-0.552, 0.336-0.55 c 0.221-0.189, 0.338-0.352, 0.613-0.373c 0.116-0.008, 1.406-0.364, 1.406-0.203c 0.052,0.002, 0.224,0.004, 0.402,0.010 C 23.016,3.43, 19.679,2, 16,2c-3.563,0-6.806,1.342-9.277,3.535c 0.022,0.050, 0.039,0.098, 0.038,0.132 C 6.892,5.658, 7.080,5.574, 7.122,5.74C 7.057,5.739, 6.992,5.731, 6.93,5.715c 0.046,0.371-0.162,0.144-0.336,0.144 c0-0.009-0.077-0.040-0.159-0.062c-0.053,0.050-0.109,0.097-0.162,0.147C 6.279,5.96, 6.27,5.961, 6.28,5.979 c 0.056,0, 0.027,0.087, 0.187,0.14C 6.652,6.182, 6.855,6.217, 7.050,6.248c 0.158,0.025, 0.249-0.029, 0.384-0.029 c0-0.020, 0.33-0.167, 0.097-0.167c 0.032-0.132-0.027-0.165-0.169-0.167c 0.012-0.14, 0.345-0.048, 0.481-0.048 c 0.104-0.175, 0.003-0.154, 0.095-0.313c 0.11-0.195, 0.241-0.026, 0.313-0.213C 8.36,5.351, 8.457,5.41, 8.492,5.548 C 8.579,5.62, 9.021,6.272, 9.021,5.811C 9.179,5.864, 9.258,6.16, 9.261,6.315c 0.287-0.042, 0.312-0.257, 0.312-0.48 c 0.066,0-0.024-0.107-0.024-0.144C 9.656,5.652, 9.79,5.793, 9.79,5.644c 0.046,0, 0.048,0.046, 0.048,0.096 c 0.149,0.029, 0.245-0.017, 0.336,0.015c 0.063,0.022, 0.031,0.349, 0.002,0.464c-0.036,0.146-0.315,0.148-0.315,0.216 c-0.316,0.236, 0.373,0.359, 0.481,0.503c-0.065,0-0.312-0.032-0.312-0.047c-0.156,0-0.534,0.165-0.673,0.047 c 0.194,0, 0.259-0.233, 0.289-0.455c-0.179-0.067-0.39,0.043-0.44,0.221C 9.122,6.998, 8.927,6.692, 8.829,6.89 C 8.791,6.902, 8.444,7.063, 8.444,7.009c-0.39,0.055-0.288,0.386-0.288,0.743C 8.311,7.845, 8.626,8.11, 8.612,8.255 C 8.962,8.317, 9.090,8.354, 9.405,8.399c 0.026,0.051, 0.13,0.099, 0.193,0.119c0,0.206, 0.187,0.169, 0.36,0.169 c0-0.263, 0.306,0.219, 0.336,0.311c-0.042,0, 0.072,0.269, 0.096,0.36c-0.048-0.017-0.063,0-0.048,0.048 c 0.152,0.056, 0.393,0.040, 0.433-0.12c-0.146,0-0.097-0.167-0.097-0.264c-0.15-0.1-0.127-0.293, 0.024-0.335 c0,0.136, 0.495-0.085, 0.216-0.191c 0.068-0.153, 0.114-0.388, 0.003-0.521c-0.071-0.084-0.16,0-0.195-0.126 c 0.189-0.047, 0.050-0.407, 0.048-0.575c 0.060-0.023, 0.216,0.038, 0.216,0c 0.185,0, 0.493,0.234, 0.601-0.049 c 0.309,0.141, 0.063,0.275, 0.385,0.168c0,0.076, 0.363,0.431, 0.409,0.431c0,0.017-0.009,0.12, 0.071,0.12 c0,0.077-0.048-0.044-0.048,0.095c 0.045,0.005, 0.289,0.049, 0.289-0.047c 0.155,0, 0.264-0.19, 0.264-0.335 c 0.097-0.063, 0.267,0.527, 0.384,0.527c 0.086,0.134, 0.361,0.329, 0.361,0.455c 0.058,0.059, 0.119,0.043, 0.119,0.216 c 0.073,0, 0.217-0.287, 0.217-0.024c 0.068,0, 0.266,0.146, 0.289,0.263c-0.173,0-0.009,0.168-0.098,0.168 c0,0.166-0.371,0.034-0.455,0.024c-0.115,0.515-0.809,0.145-1.229,0.278c-0.221,0.070-0.648,0.557-0.671,0.8 c 0.268,0.003, 0.386-0.232, 0.625-0.312c 0.195,0, 0.233-0.118, 0.409-0.167c0,0.049, 0.048,0.023, 0.048,0.072 c-0.342,0-0.134,0.221-0.034,0.382c 0.062,0.1, 0.133,0.148, 0.212,0.179c-0.033,0.058-0.060,0.116-0.081,0.181 c0,0.001-0.001,0-0.001,0.001c-0.065,0.022-0.192,0.069-0.217,0.12c-0.387,0.043-0.196,0.017-0.17-0.076 c 0.014,0.033, 0.153,0.003, 0.147,0.004c-0.023-0.116-0.058-0.1-0.024-0.167c-0.21,0-0.312,0.096-0.481,0.096 c-0.028,0.057-0.175,0.192-0.24,0.192c-0.049,0.148-0.16,0.417-0.289,0.503c0-0.039-0.342,0.215-0.312,0.215 c-0.076,0.123-0.159,0.119-0.193,0.311c-0.023,0.012-0.12,0.333-0.12,0.383c-0.149,0.099-0.204,0.503-0.457,0.503 c-0.155,0.308-0.433,0.267-0.433,0.671c 0.094,0.096, 0.13,0.521, 0.159,0.657c 0.036,0.169, 0.092,0.345-0.134,0.349 c-0.016-0.025-0.174-0.264-0.145-0.264c0-0.099-0.121-0.416-0.192-0.515c-0.095-0.133-0.271,0.021-0.409-0.037 c-0.059-0.118-0.458-0.144-0.6-0.144c 0.023,0.089, 0.088,0.117, 0.096,0.216c-0.118,0.048-0.186,0.102-0.308,0.085 c-0.209-0.029-0.184-0.192-0.414-0.169c-0.368,0.037-0.625,0.342-0.625,0.707c-0.041,0-0.041,0.719,0,0.719 c0,0.203, 0.168,0.35, 0.168,0.503c 0.163,0, 0.346,0.359, 0.505,0.359c 0.018,0.127-0.080,0.147, 0.192,0.145 c0-0.014, 0.148-0.093, 0.168-0.192c-0.188-0.046-0.001-0.288, 0.12-0.335c0,0.171, 0.24-0.057, 0.24-0.072 c 0.027-0.011, 0.265-0.096, 0.265-0.096c0-0.194, 0.181,0.019, 0.048,0.096c-0.13,0-0.12,0.216-0.192,0.216 c-0.031,0.154-0.092,0.288-0.128,0.438c-0.046,0.185, 0.104,0.204, 0.056,0.377c 0.191,0.036, 0.384,0.001, 0.577,0 c 0.001-0.034-0.006-0.067-0.024-0.096c 0.279,0, 0.024,0.527, 0.193,0.527c0,0.199, 0.096,0.354, 0.096,0.479 c 0.13,0.086, 0.208,0.201, 0.168,0.359c 0.16,0.021, 0.504,0.062, 0.504-0.144c 0.243,0, 0.26,0.165, 0.242,0.335 c 0.484,0, 0.181-0.479, 0.383-0.479c 0.019-0.079, 0.052-0.093, 0.099-0.041c 0.099,0.053, 0.174-0.099, 0.253-0.147 c 0.025-0.017, 0.113-0.068, 0.129-0.068c 0.068,0.041, 0.074,0.029, 0.104,0.075c 0.132-0.001, 0.265-0.075, 0.378-0.153 c 0.173,0.021, 0.117,0.393, 0.441,0.416c 0.13,0.009, 0.431,0.045, 0.543-0.032c 0.028-0.019, 0.131,0.065, 0.142,0.101 c 0.108,0, 0.1,0.094, 0.146,0.092c 0.011,0.021, 0.027,0.029, 0.049,0.023c 0.014,0.041, 0.1,0.053, 0.145,0.167 c0,0.104, 0.216,0.122, 0.216,0.191c 0.155,0.078-0.053,0.099, 0.185,0.171c 0.131,0.041, 0.252,0.107, 0.393,0.117 c 0.045-0.171, 0.191,0.023, 0.265,0.023c 0.038,0.078, 0.058,0.019, 0.095,0.096c 0.223,0.186, 0.076,0.114, 0.168,0.312 c 0.107,0.070, 0.141,0.314, 0.17,0.455c-0.086,0-0.025,0.329-0.025,0.36c-0.104,0, 0.266,0.197, 0.266-0.049 c 0.152,0.025, 0.252,0.191, 0.36,0.191c-0.063,0.145, 0.168,0.254, 0.168,0.025c 0.228,0.023, 0.167,0.363, 0.145,0.479 c 0.169,0, 0.218-0.094, 0.362-0.112C 16.629,20.072, 16.803,20, 17,20c 0.553,0, 1,0.447, 1,1c0,0.498-0.371,0.893-0.848,0.969 c-0.064,0.073-0.122,0.136-0.126,0.136c0,0.048-0.011,0.526-0.025,0.526c0,0.096-0.073,0.623-0.144,0.623 c0,0.271-0.177,0.32-0.24,0.575c-0.146,0.108-0.541,0.288-0.602,0.407c-0.113,0-0.197,0.096-0.312,0.096 c-0.016,0.033-0.261,0.264-0.217,0.264c-0.018,0.17, 0.013,0.57-0.079,0.682c-0.062,0.074-0.151,0.066-0.112,0.182 c-0.135,0, 0.008,0.096-0.205,0.096c-0.134,0-0.373,0.191-0.38,0.353c-0.009,0.198-0.062,0.341-0.232,0.462 c0,0.068-0.312,0.088-0.312,0.264c 0.029,0,0,0.326,0,0.359c-0.093-0.003-0.321,0.090-0.36,0.167c-0.314,0-0.276,0.032-0.48,0.168 c0,0.042-0.029,0.191-0.072,0.191c0,0.243-0.173,0.022-0.313,0.145c 0.055,0, 0.125,0.239, 0.096,0.239 c0,0.211-0.131,0.229-0.264,0.384c-0.063,0.042-0.123,0.216-0.168,0.216c0,0.142-0.071,0.271-0.071,0.407 c 0.030,0, 0.002,0.061, 0.023,0.118c 0.067-0.019, 0.069-0.095, 0.096-0.095c0-0.12, 0.191,0.071, 0.072,0.071 c-0.099,0.15-0.206,0.153-0.265,0.36c-0.060,0-0.112,0.058-0.156,0.126C 13.482,29.812, 14.718,30, 16,30 c 4.924,0, 9.246-2.548, 11.742-6.393c 0.015-0.354, 0.070-0.692, 0.109-0.809c 0.098,0.072, 0.171,0.207, 0.24,0 c-0.173-0.034-0.131-0.094-0.072-0.239c 0.066,0.040, 0.199,0.089, 0.307,0.082c 0.033-0.062, 0.059-0.128, 0.092-0.19 c-0.098-0.076, 0.037-0.273, 0.084-0.177c 0.025-0.048, 0.047-0.098, 0.070-0.146c-0.011-0.003-0.008,0.004-0.024-0.001 c0-0.087, 0.016-0.076, 0.073-0.12c 0.001,0.009,0,0.009, 0.002,0.017C 29.496,20.197, 30,18.16, 30,16c0-0.071-0.010-0.139-0.011-0.21 c-0.026,0.098-0.075,0.204-0.144,0.228c0,0.063-0.715,0.374-0.672,0.503c-0.126,0-0.568,0.126-0.649,0.287 c-0.089,0-0.448,0.127-0.481,0.192C 27.597,17.001, 27.682,16.474, 27.467,16.474z M 29.5,11l-0.531,0 c-0.004-0.005-0.008-0.006-0.012-0.013c-0.027,0-0.14-0.254-0.096-0.312c 0.043,0, 0.063,0.004, 0.086,0.006 c-0.045-0.11-0.094-0.218-0.143-0.327c-0.108,0.074-0.203,0.168-0.352,0.177c0,0.041-0.213,0.455,0,0.455 c0,0.008, 0.004,0.014, 0.006,0.021C 28.203,11.031, 28,11.239, 28,11.5c0,0.276, 0.224,0.5, 0.5,0.5l 0.197,0 c 0.012,0.091, 0.061,0.17, 0.236,0.209c 0.055,0.231, 0.467,0.313, 0.529,0.071c-0.174,0-0.117-0.167-0.102-0.28L 29.5,12 c 0.275,0, 0.5-0.224, 0.5-0.5C 30,11.224, 29.775,11, 29.5,11z M 28.043,17.502c 0.035,0.002, 0.266-0.004, 0.266-0.045 c 0.209,0, 0.492-0.029, 0.697-0.097c0,0.31-0.261,0.483-0.217,0.791c-0.173,0-0.097,0.178-0.097,0.239 c-0.112,0.069-0.129,0.195-0.264,0.264c0,0.139-0.312,0.369-0.404,0.488c-0.104,0.133-0.417,0.364-0.458,0.533 c 0.011-0.040-0.572,0.607-0.436,0.607c0,0.121-0.164,1.078, 0.048,1.078c0,0.084, 0.181,0.887, 0.071,0.887 c0,0.258-0.168,0.416-0.168,0.622c-0.082,0.056-0.199,0.087-0.24,0.169c-0.147,0-0.218,0.312-0.288,0.312 c0,0.333-0.097,0.58-0.097,0.958c 0.027,0-0.192,0.539-0.192,0.574c-0.177,0.119-0.625,0.546-0.625,0.768c0,0-0.312,0.438-0.36,0.503 c-0.094,0-0.818,0.136-0.818,0.192c-0.154,0-0.552,0.121-0.648-0.024c0-0.152-0.083-0.345-0.096-0.552 c-0.074,0-0.086-0.311-0.168-0.311c0-0.066-0.459-0.983-0.385-0.983c0-0.095-0.082-0.407-0.096-0.407c0-0.33-0.241-0.605-0.241-0.91 c-0.071,0-0.218-0.67-0.144-0.67c0-0.352, 0.123-0.582, 0.174-0.973c 0.057-0.429-0.027-0.69-0.102-0.993 c-0.041,0-0.179-0.229-0.193-0.287c-0.193-0.128-0.264-0.382-0.264-0.622c 0.126-0.144, 0.176-0.685, 0.145-0.863 c-0.243-0.115-0.34-0.072-0.602-0.072c-0.155-0.311-1.196-0.119-1.491-0.119c0,0.17-0.725-0.033-0.793-0.168 c-0.177,0-0.528-0.376-0.528-0.551c-0.194-0.129-0.504-0.771-0.504-0.982c-0.168-0.084-0.117-0.408-0.025-0.408 c 0.023-0.090-0.059-0.374-0.098-0.509c-0.029-0.101, 0.098-0.21, 0.098-0.33c0-0.334, 0.008-0.488, 0.195-0.845 c 0.059-0.112, 0.134-0.217, 0.189-0.357c 0.1-0.251, 0.13-0.012, 0.265-0.236c 0.129-0.064, 0.204-0.278, 0.337-0.383 c 0.058-0.077, 0.060-0.109,0-0.168c 0.026,0, 0.168-0.369, 0.168-0.454c 0.188-0.261, 0.055-0.142, 0.24-0.12 c 0.068-0.074, 0.181-0.264, 0.288-0.264c 0.047-0.093, 0.165-0.144, 0.265-0.144c0,0.144, 0.392-0.047, 0.433-0.047 c 0.067-0.135, 0.499-0.288, 0.601-0.288c0-0.164, 0.852,0.046, 0.986,0.024c0-0.024,0-0.048,0-0.072c 0.182,0.043, 0.514,0.773, 0.48,0.935 c 0.14,0, 0.27-0.023, 0.361,0c0,0.155, 0.292,0.193, 0.425,0.2c 0.185,0.009, 0.728-0.019, 0.728-0.272c 0.143,0, 0.27,0.1, 0.242,0.263 c 0.162,0.018, 1.125,0.037, 1.057,0.239c 0.141,0, 0.177,0.241, 0.312,0.241c-0.027,0.166, 0.168,0.599, 0.312,0.599 c0,0.144, 0.090,0.409, 0.217,0.502c 0.068,0.206, 0.293,0.64, 0.504,0.767c-0.090,0.17, 0.137,0.31, 0.193,0.479 c-0.013,0, 0.049,0.251, 0.119,0.288c0,0.17, 0.358,0.863, 0.554,0.863C 27.984,17.445, 27.787,17.483, 28.043,17.502z M 22.852,12.137 c 0.037-0.143, 0.121-0.032, 0.199-0.006c 0.185,0.060, 0.121-0.003, 0.258-0.065C 23.309,12.456, 23.085,12.16, 22.852,12.137z M 22.346,11.418c 0.098,0, 0.125,0.44-0.144,0.359c0-0.109-0.069-0.311, 0.073-0.311C 22.316,11.636, 22.346,11.567, 22.346,11.418z M 22.227,11.131c 0.111,0.048, 0.16,0.032, 0.144-0.048c 0.146,0.048-0.019,0.152-0.048,0.264 C 22.248,11.273, 22.271,11.247, 22.227,11.131z M 19.654,8.998c-0.236-0.061, 0.243-0.131, 0.264-0.191c-0.080,0-0.135-0.083-0.104-0.153 c 0.036-0.083, 0.095,0.099, 0.177,0.058c 0.097-0.010, 0.288-0.155, 0.19,0.125c-0.1,0.284-0.191,0.492-0.551,0.497 C 19.501,9.204, 19.625,9.136, 19.654,8.998z M 20.544,8.016c 0.194,0, 0.024,0.144-0.019,0.144c 0.033,0.013-0.006,0.129-0.006,0.167 c 0.18-0.002, 0.183-0.112, 0.312-0.144c-0.027,0.161-0.207,0.192-0.031,0.33c 0.093,0.073, 0.188,0.159, 0.151,0.27 c 0.229,0, 0.263,0.22, 0.216,0.479c 0.127,0, 0.121,0.006, 0.121-0.121c 0.123,0.034, 0.114,0.145,0,0.145 c-0.114,0.225-0.413,0.215-0.625,0.215c-0.002-0.174-0.035-0.185-0.196-0.136c-0.22,0.067-0.048-0.175-0.044-0.295 c 0.024,0, 0.499,0.022, 0.216-0.072c-0.015-0.258-0.073-0.335-0.312-0.335c0-0.176-0.062-0.163-0.091-0.356 C 20.195,8.022, 20.459,8.327, 20.544,8.016z M 20.471,9.573c0,0.059-0.12,0.106-0.144,0.023c 0.023,0.008, 0.032,0, 0.023-0.023 C 20.391,9.573, 20.432,9.573, 20.471,9.573z M 18.5,7l-1,0 C 17.224,7, 17,6.776, 17,6.5C 17,6.224, 17.224,6, 17.5,6l 1,0 C 18.776,6, 19,6.224, 19,6.5C 19,6.776, 18.776,7, 18.5,7z M 12.674,15.85c 0.056,0, 0.121,0.022, 0.121,0.072 C 12.722,15.922, 12.628,15.991, 12.674,15.85z M 11.762,15.899c-0.040,0.076-0.364,0.063-0.409-0.025c 0.12,0, 0.213,0.049, 0.336,0 c0-0.066-0.055-0.119-0.096-0.191c 0.131,0, 0.278,0.1, 0.457,0.096c0-0.111-0.049,0.024,0-0.12c 0.075,0.019, 0.256,0.191, 0.264,0.263 C 12.051,15.894, 12.039,15.899, 11.762,15.899z M 10.704,15.324c-0.123,0-0.36-0.107-0.433-0.216c 0.119,0.005, 0.237,0.054, 0.312-0.072 c 0.305,0.031, 0.332,0.241, 0.577,0.241c 0.046,0.081, 0.308,0.267, 0.055,0.291C 11.024,15.586, 10.784,15.482, 10.704,15.324z M 10.896,15.995c-0.089,0-0.236,0.039-0.168-0.145C 10.846,15.866, 10.902,15.915, 10.896,15.995z M 11.064,15.971 c-0.048,0.008-0.096,0.016-0.144,0.024C 10.934,15.884, 11.039,15.76, 11.064,15.971z M 11.953,17.024 c-0.019,0.067-0.016,0.071-0.095,0.071c 0.008-0.031, 0.015-0.062, 0.023-0.095C 11.906,17.008, 11.929,17.016, 11.953,17.024z M 9.79,15.036c 0.023,0.008, 0.048,0.017, 0.072,0.024c 0.031,0.119, 0.096,0.060, 0.168,0.024C 10.030,15.223, 9.708,15.263, 9.79,15.036z"></path></g></svg>