<?xml version="1.0" encoding="utf-8"?> <!-- Generator: IcoMoon.io --> <!DOCTYPE svg PUBLIC "-//W3C//DTD SVG 1.1//EN" "http://www.w3.org/Graphics/SVG/1.1/DTD/svg11.dtd"> <svg width="32" height="32" viewBox="0 0 32 32" xmlns="http://www.w3.org/2000/svg" xmlns:xlink="http://www.w3.org/1999/xlink" fill="#000000"><g><path d="M 26.667,0L 5.334,0 C 2.4,0,0,2.4,0,5.334l0,21.332 C0,29.602, 2.4,32, 5.334,32l 21.333-0 c 2.934,0, 5.333-2.398, 5.333-5.334L 32,5.334 C 32,2.4, 29.601,0, 26.667,0z M 27.206,16L 22,16 l0,14 l-6,0 L 16,16 l-2.891,0 l0-4.58 L 16,11.42 l0-2.975 C 16,4.403, 17.744,2, 22.496,2l 5.476,0 l0,4.955 l-4.473,0 c-1.328-0.002-1.492,0.692-1.492,1.985L 22,11.42l 6,0 L 27.206,16z"></path></g></svg>