<?xml version="1.0" encoding="utf-8"?> <!-- Generator: IcoMoon.io --> <!DOCTYPE svg PUBLIC "-//W3C//DTD SVG 1.1//EN" "http://www.w3.org/Graphics/SVG/1.1/DTD/svg11.dtd"> <svg width="32" height="32" viewBox="0 0 32 32" xmlns="http://www.w3.org/2000/svg" xmlns:xlink="http://www.w3.org/1999/xlink" fill="#000000"><g><path d="M 16,0 C 24.837,0 32,7.163 32,16 C 32,24.159 25.893,30.892 18,31.876 L 18,20 L 23.5,20 L 24,16 L 18,16 L 18,14 C 18,12.895 18.895,12 20,12 L 24,12 L 24,8 L 20,8 C 16.686,8 14,10.686 14,14 L 14,16 L 11,16 L 11,20 L 14,20 L 14,27.906 L 14,31.496 L 14,31.876 C 6.107,30.892 0,24.159 0,16 C 0,7.163 7.163,0 16,0 Z"></path></g></svg>