<?xml version="1.0" encoding="utf-8"?> <!-- Generator: IcoMoon.io --> <!DOCTYPE svg PUBLIC "-//W3C//DTD SVG 1.1//EN" "http://www.w3.org/Graphics/SVG/1.1/DTD/svg11.dtd"> <svg width="32" height="32" viewBox="0 0 32 32" xmlns="http://www.w3.org/2000/svg" xmlns:xlink="http://www.w3.org/1999/xlink" fill="#000000"><g><path d="M 12,16A4,4 2520 1 0 20,16A4,4 2520 1 0 12,16zM 20.761,7.204 C 23.881,8.896 26,12.201 26,16 C 26,19.799 23.881,23.104 20.761,24.796 C 22.138,22.605 23,19.475 23,16 C 23,12.525 22.138,9.395 20.761,7.204 ZM 9,16 C 9,19.475 9.862,22.605 11.239,24.796 C 8.119,23.104 6,19.799 6,16 C 6,12.201 8.119,8.896 11.239,7.204 C 9.862,9.395 9,12.525 9,16 ZM 3,16 C 3,21.372 4.7,26.193 7.395,29.491 C 2.948,26.649 0,21.669 0,16 C 0,10.331 2.948,5.351 7.395,2.509 C 4.7,5.807 3,10.628 3,16 ZM 24.605,2.509 C 29.052,5.351 32,10.331 32,16 C 32,21.669 29.052,26.649 24.605,29.491 C 27.3,26.193 29,21.372 29,16 C 29,10.628 27.3,5.807 24.605,2.509 Z"></path></g></svg>