<?xml version="1.0" encoding="utf-8"?> <!-- Generator: IcoMoon.io --> <!DOCTYPE svg PUBLIC "-//W3C//DTD SVG 1.1//EN" "http://www.w3.org/Graphics/SVG/1.1/DTD/svg11.dtd"> <svg width="32" height="32" viewBox="0 0 32 32" xmlns="http://www.w3.org/2000/svg" xmlns:xlink="http://www.w3.org/1999/xlink" fill="#000000"><g><path d="M 27,0L 3,0 C 1.35,0,0,1.35,0,3l0,26 c0,1.65, 1.35,3, 3,3l 24,0 c 1.65,0, 3-1.35, 3-3L 30,3 C 30,1.35, 28.65,0, 27,0z M 26,28L 4,28 L 4,4 l 22,0 L 26,28 zM 8,14L 22,14L 22,16L 8,16zM 8,18L 22,18L 22,20L 8,20zM 8,22L 22,22L 22,24L 8,24zM 8,10L 22,10L 22,12L 8,12z"></path></g></svg>