<?xml version="1.0" encoding="utf-8"?> <!-- Generator: IcoMoon.io --> <!DOCTYPE svg PUBLIC "-//W3C//DTD SVG 1.1//EN" "http://www.w3.org/Graphics/SVG/1.1/DTD/svg11.dtd"> <svg width="32" height="32" viewBox="0 0 32 32" xmlns="http://www.w3.org/2000/svg" xmlns:xlink="http://www.w3.org/1999/xlink" fill="#000000"><g><path d="M0,4l0,24 l 32,0 L 32,4 L0,4 z M 6,26L 2,26 l0-4 l 4,0 L 6,26 z M 6,18L 2,18 l0-4 l 4,0 L 6,18 z M 6,10L 2,10 L 2,6 l 4,0 L 6,10 z M 24,26L 8,26 L 8,6 l 16,0 L 24,26 z M 30,26l-4,0 l0-4 l 4,0 L 30,26 z M 30,18l-4,0 l0-4 l 4,0 L 30,18 z M 30,10l-4,0 L 26,6 l 4,0 L 30,10 zM 12,10L 12,22L 20,16 z"></path></g></svg>