<?xml version="1.0" encoding="utf-8"?> <!-- Generator: IcoMoon.io --> <!DOCTYPE svg PUBLIC "-//W3C//DTD SVG 1.1//EN" "http://www.w3.org/Graphics/SVG/1.1/DTD/svg11.dtd"> <svg width="32" height="32" viewBox="0 0 32 32" xmlns="http://www.w3.org/2000/svg" xmlns:xlink="http://www.w3.org/1999/xlink" fill="#000000"><g><path d="M 15,2C 6.716,2,0,8.716,0,17c0,8.284, 6.716,15, 15,15c 8.284,0, 15-6.716, 15-15 C 30,8.716, 23.284,2, 15,2z M 23.487,22c 0.268-1.264, 0.437-2.606, 0.492-4l 3.983,0 c-0.104,1.381-0.426,2.722-0.959,4 L 23.487,22 z M 6.513,12c-0.268,1.264-0.437,2.606-0.492,4L 2.038,16 c 0.104-1.381, 0.426-2.722, 0.959-4L 6.513,12 z M 21.439,12 c 0.3,1.28, 0.481,2.62, 0.54,4L 16,16 l0-4 L 21.439,12 z M 16,10L 16,4.146 c 0.456,0.133, 0.908,0.355, 1.351,0.668 c 0.831,0.586, 1.625,1.488, 2.298,2.609c 0.465,0.775, 0.867,1.638, 1.203,2.578L 16,10 z M 10.351,7.422 c 0.673-1.121, 1.467-2.023, 2.298-2.609c 0.443-0.313, 0.895-0.535, 1.351-0.668L 14,10 l-4.852,0 C 9.484,9.060, 9.886,8.197, 10.351,7.422z M 14,12l0,4 l-5.979,0 c 0.059-1.38, 0.24-2.72, 0.54-4L 14,12 z M 2.997,22 c-0.533-1.278-0.854-2.619-0.959-4l 3.983,0 c 0.055,1.394, 0.224,2.736, 0.492,4L 2.997,22 z M 8.021,18L 14,18 l0,4 l-5.439,0 C 8.261,20.72, 8.080,19.38, 8.021,18z M 14,24l0,5.854 c-0.456-0.133-0.908-0.355-1.351-0.668 c-0.831-0.586-1.625-1.488-2.298-2.609c-0.465-0.775-0.867-1.638-1.203-2.578L 14,24 z M 19.649,26.578 c-0.673,1.121-1.467,2.023-2.298,2.609c-0.443,0.312-0.895,0.535-1.351,0.668L 16,24 l 4.852,0 C 20.516,24.94, 20.114,25.802, 19.649,26.578z M 16,22l0-4 l 5.979,0 c-0.059,1.38-0.24,2.72-0.54,4L 16,22 z M 23.98,16 c-0.055-1.394-0.224-2.736-0.492-4l 3.516,0 c 0.533,1.278, 0.855,2.619, 0.959,4L 23.98,16 z M 25.958,10l-2.997,0 c-0.582-1.836-1.387-3.447-2.354-4.732c 1.329,0.636, 2.533,1.488, 3.585,2.54C 24.864,8.479, 25.454,9.212, 25.958,10 z M 5.808,7.808c 1.052-1.052, 2.256-1.904, 3.585-2.54c-0.967,1.285-1.771,2.896-2.354,4.732L 4.042,10 C 4.546,9.212, 5.136,8.479, 5.808,7.808z M 4.042,24l 2.997,0 c 0.583,1.836, 1.387,3.447, 2.354,4.732 c-1.329-0.636-2.533-1.488-3.585-2.54C 5.136,25.521, 4.546,24.788, 4.042,24z M 24.192,26.192 c-1.052,1.052-2.256,1.904-3.585,2.54c 0.967-1.285, 1.771-2.896, 2.354-4.732l 2.997,0 C 25.454,24.788, 24.864,25.521, 24.192,26.192z"></path></g></svg>