<?xml version="1.0" encoding="utf-8"?> <!-- Generator: IcoMoon.io --> <!DOCTYPE svg PUBLIC "-//W3C//DTD SVG 1.1//EN" "http://www.w3.org/Graphics/SVG/1.1/DTD/svg11.dtd"> <svg width="32" height="32" viewBox="0 0 32 32" xmlns="http://www.w3.org/2000/svg" xmlns:xlink="http://www.w3.org/1999/xlink" fill="#000000"><g><path d="M 28.831,19.019l-2.84-2.841L 25.991,31 c0,0.553-0.446,1-0.999,1l-2.997,0 l0,0l-0.999,0 c-0.553,0-0.999-0.447-0.999-1l0-1.999 l0-0.999 l0-2.999 l0-5.997 c0-0.553-0.447-1-1-1l-5.995,0 c-0.552,0-0.999,0.447-0.999,1l0,5.997 l0,3.998 l0,1 L 12.003,31 c0,0.553-0.448,1-0.999,1l-1,0 l0,0L 7.008,32 c-0.552,0-1-0.447-1-1L 6.008,16.178 l-2.84,2.841L0,15.849L 15.842,0L 16,0.158L 16.158,0 l 7.835,7.839L 23.993,2.013 l 3.997,0 l0,9.825 L 32,15.849L 28.831,19.019z"></path></g></svg>