<?xml version="1.0" encoding="utf-8"?> <!-- Generator: IcoMoon.io --> <!DOCTYPE svg PUBLIC "-//W3C//DTD SVG 1.1//EN" "http://www.w3.org/Graphics/SVG/1.1/DTD/svg11.dtd"> <svg width="32" height="32" viewBox="0 0 32 32" xmlns="http://www.w3.org/2000/svg" xmlns:xlink="http://www.w3.org/1999/xlink" fill="#000000"><g><path d="M 16,0C 7.163,0,0,7.163,0,16s 7.163,16, 16,16s 16-7.163, 16-16S 24.837,0, 16,0z M 16,29 c-7.18,0-13-5.82-13-13S 8.82,3, 16,3s 13,5.82, 13,13S 23.18,29, 16,29zM 14,8L 18,8L 18,12L 14,12zM 20,24L 12,24L 12,22L 14,22L 14,16L 12,16L 12,14L 18,14L 18,22L 20,22 z"></path></g></svg>