<?xml version="1.0" encoding="utf-8"?> <!-- Generator: IcoMoon.io --> <!DOCTYPE svg PUBLIC "-//W3C//DTD SVG 1.1//EN" "http://www.w3.org/Graphics/SVG/1.1/DTD/svg11.dtd"> <svg width="32" height="32" viewBox="0 0 32 32" xmlns="http://www.w3.org/2000/svg" xmlns:xlink="http://www.w3.org/1999/xlink" fill="#000000"><g><path d="M 16,0C 7.163,0,0,7.164,0,16c0,8.836, 7.163,16, 16,16s 16-7.164, 16-16 C 32,7.164, 24.837,0, 16,0z M 16,6c 1.104,0, 2,0.896, 2,2s-0.896,2-2,2s-2-0.896-2-2S 14.896,6, 16,6z M 11,24l 3-2l 2,0 l0-8 l-2,0 l-1-2l 5,0 l0,2 l0,8 l 2,0 l 3,2 L 11,24 z"></path></g></svg>