<?xml version="1.0" encoding="utf-8"?> <!-- Generator: IcoMoon.io --> <!DOCTYPE svg PUBLIC "-//W3C//DTD SVG 1.1//EN" "http://www.w3.org/Graphics/SVG/1.1/DTD/svg11.dtd"> <svg width="32" height="32" viewBox="0 0 32 32" xmlns="http://www.w3.org/2000/svg" xmlns:xlink="http://www.w3.org/1999/xlink" fill="#000000"><g><path d="M 7,10l 18,0 c 0.552,0, 1-0.448, 1-1s-0.448-1-1-1L 7,8 c-0.552,0-1,0.448-1,1S 6.448,10, 7,10z M 25,12L 7,12 c-0.552,0-1,0.448-1,1s 0.448,1, 1,1l 18,0 c 0.552,0, 1-0.448, 1-1S 25.552,12, 25,12z M 25,16L 7,16 c-0.552,0-1,0.448-1,1s 0.448,1, 1,1l 18,0 c 0.552,0, 1-0.448, 1-1S 25.552,16, 25,16z M 25,20L 7,20 c-0.552,0-1,0.448-1,1 s 0.448,1, 1,1l 18,0 c 0.552,0, 1-0.448, 1-1S 25.552,20, 25,20z"></path></g></svg>