<?xml version="1.0" encoding="utf-8"?> <!-- Generator: IcoMoon.io --> <!DOCTYPE svg PUBLIC "-//W3C//DTD SVG 1.1//EN" "http://www.w3.org/Graphics/SVG/1.1/DTD/svg11.dtd"> <svg width="36.56912612915039" height="32.00031280517578" viewBox="0 0 36.56912612915039 32.00031280517578" xmlns="http://www.w3.org/2000/svg" xmlns:xlink="http://www.w3.org/1999/xlink" fill="#000000"><g><path d="M0,2.286A2.286,2.286 1440 1 0 4.571,2.286A2.286,2.286 1440 1 0 0,2.286zM0,11.429A2.286,2.286 1440 1 0 4.571,11.429A2.286,2.286 1440 1 0 0,11.429zM0,20.571A2.286,2.286 1440 1 0 4.571,20.571A2.286,2.286 1440 1 0 0,20.571zM0,29.715A2.286,2.286 1440 1 0 4.571,29.715A2.286,2.286 1440 1 0 0,29.715zM 9.143,0L 36.569,0L 36.569,4.571L 9.143,4.571zM 9.143,9.143L 36.569,9.143L 36.569,13.715L 9.143,13.715zM 9.143,18.286L 36.569,18.286L 36.569,22.857L 9.143,22.857zM 9.143,27.429L 36.569,27.429L 36.569,32L 9.143,32z"></path></g></svg>