<?xml version="1.0" encoding="utf-8"?> <!-- Generator: IcoMoon.io --> <!DOCTYPE svg PUBLIC "-//W3C//DTD SVG 1.1//EN" "http://www.w3.org/Graphics/SVG/1.1/DTD/svg11.dtd"> <svg width="32" height="32" viewBox="0 0 32 32" xmlns="http://www.w3.org/2000/svg" xmlns:xlink="http://www.w3.org/1999/xlink" fill="#000000"><g><path d="M 26.667,0L 5.334,0 C 2.4,0,0,2.4,0,5.334l0,21.332 C0,29.602, 2.4,32, 5.334,32l 21.333,0 C 29.601,32, 32,29.602, 32,26.666L 32,5.334 C 32,2.4, 29.601,0, 26.667,0z M 26.667,4c 0.25,0, 0.486,0.073, 0.688,0.198 L 16,13.586L 4.645,4.198C 4.848,4.073, 5.084,4, 5.334,4L 26.667,4 z M 5.334,28c-0.060,0-0.119-0.005-0.178-0.013 l 7.051-9.78l-0.914-0.914L 4,24.586L 4,5.488 L 16,20L 28,5.488l0,19.098 L 20.707,17.293l-0.914,0.914l 7.051,9.78 c-0.058,0.008-0.117,0.013-0.177,0.013L 5.334,28 z"></path></g></svg>