<?xml version="1.0" encoding="utf-8"?> <!-- Generator: IcoMoon.io --> <!DOCTYPE svg PUBLIC "-//W3C//DTD SVG 1.1//EN" "http://www.w3.org/Graphics/SVG/1.1/DTD/svg11.dtd"> <svg width="32" height="32" viewBox="0 0 32 32" xmlns="http://www.w3.org/2000/svg" xmlns:xlink="http://www.w3.org/1999/xlink" fill="#000000"><g><path d="M 26.667,0L 5.334,0 C 2.4,0,0,2.4,0,5.334l0,21.332 C0,29.602, 2.4,32, 5.334,32l 21.333,0 C 29.601,32, 32,29.602, 32,26.666L 32,5.334 C 32,2.4, 29.601,0, 26.667,0z M 5.707,27.707l-2.414-2.414l 8-8 l 0.914,0.914L 5.707,27.707z M 4.793,6.207l 0.914-0.914L 16,13.586L 26.293,5.293l 0.914,0.914L 16,19.414L 4.793,6.207z M 26.293,27.707l-6.5-9.5l 0.914-0.914l 8,8L 26.293,27.707z"></path></g></svg>