<?xml version="1.0" encoding="utf-8"?> <!-- Generator: IcoMoon.io --> <!DOCTYPE svg PUBLIC "-//W3C//DTD SVG 1.1//EN" "http://www.w3.org/Graphics/SVG/1.1/DTD/svg11.dtd"> <svg width="32" height="32" viewBox="0 0 32 32" xmlns="http://www.w3.org/2000/svg" xmlns:xlink="http://www.w3.org/1999/xlink" fill="#000000"><g><path d="M 30,24c0,0-8.25,0-10,0s 2,6, 2,6c0,1.104-0.896,2-2,2l-8,0 c-1.104,0-2-0.896-2-2 c0,0, 3.812-6, 2-6S 2,24, 2,24c-1.104,0-2-0.896-2-2L0,2 c0-1.104, 0.896-2, 2-2l 28,0 c 1.104,0, 2,0.896, 2,2l0,20 C 32,23.104, 31.104,24, 30,24z M 16,23c 1.104,0, 2-0.896, 2-2s-0.896-2-2-2s-2,0.896-2,2S 14.896,23, 16,23z M 30,4c0-1.104-0.896-2-2-2L 4,2 C 2.896,2, 2,2.896, 2,4l0,12 c0,1.104, 0.896,2, 2,2l 24,0 c 1.104,0, 2-0.896, 2-2L 30,4 z"></path></g></svg>