<?xml version="1.0" encoding="utf-8"?> <!-- Generator: IcoMoon.io --> <!DOCTYPE svg PUBLIC "-//W3C//DTD SVG 1.1//EN" "http://www.w3.org/Graphics/SVG/1.1/DTD/svg11.dtd"> <svg width="32" height="32" viewBox="0 0 32 32" xmlns="http://www.w3.org/2000/svg" xmlns:xlink="http://www.w3.org/1999/xlink" fill="#000000"><g><path d="M 10,6 L 32,0 L 32,2 L 32,6 L 32,23 C 32,25.761 28.866,28 25,28 C 21.134,28 18,25.761 18,23 C 18,20.239 21.134,18 25,18 C 26.074,18 27.091,18.173 28,18.481 L 28,8.182 L 14,12 L 14,27 C 14,29.761 10.866,32 7,32 C 3.134,32 0,29.761 0,27 C 0,24.239 3.134,22 7,22 C 8.074,22 9.091,22.173 10,22.481 L 10,12 L 10,6 Z"></path></g></svg>