<?xml version="1.0" encoding="utf-8"?> <!-- Generator: IcoMoon.io --> <!DOCTYPE svg PUBLIC "-//W3C//DTD SVG 1.1//EN" "http://www.w3.org/Graphics/SVG/1.1/DTD/svg11.dtd"> <svg width="32" height="32" viewBox="0 0 32 32" xmlns="http://www.w3.org/2000/svg" xmlns:xlink="http://www.w3.org/1999/xlink" fill="#000000"><g><path d="M 28.074,2L 4,2 l0,4 L 1.074,6 C 0.524,6,0,6.391,0,6.941l0,2 C0,9.492, 0.524,10, 1.074,10L 4,10 l0,2 L 1.074,12 C 0.524,12,0,12.392,0,12.941l0,2 C0,15.492, 0.524,16, 1.074,16L 4,16 l0,2 L 1.074,18 C 0.524,18,0,18.392,0,18.942l0,2 C0,21.491, 0.524,22, 1.074,22L 4,22 l0,2 L 1.074,24 C 0.524,24,0,24.392,0,24.942l0,2 C0,27.491, 0.524,28, 1.074,28L 4,28 l0,4 l 24.074,0 c 1.105,0, 1.926-0.954, 1.926-2.058l0-26 C 30,2.837, 29.178,2, 28.074,2z M 10,30L 6,30 l0-2 l 1.074,0 c 0.55,0, 0.926-0.508, 0.926-1.058 l0-2 c0-0.55-0.376-0.942-0.926-0.942L 6,24 l0-2 l 1.074,0 c 0.55,0, 0.926-0.508, 0.926-1.058l0-2 c0-0.55-0.376-0.942-0.926-0.942L 6,18 l0-2 l 1.074,0 c 0.55,0, 0.926-0.508, 0.926-1.058l0-2 c0-0.55-0.376-0.942-0.926-0.942L 6,12 l0-2 l 1.074,0 c 0.55,0, 0.926-0.508, 0.926-1.058l0-2 C 8,6.391, 7.624,6, 7.074,6L 6,6 L 6,4 l 4,0 L 10,30 z"></path></g></svg>