<?xml version="1.0" encoding="utf-8"?> <!-- Generator: IcoMoon.io --> <!DOCTYPE svg PUBLIC "-//W3C//DTD SVG 1.1//EN" "http://www.w3.org/Graphics/SVG/1.1/DTD/svg11.dtd"> <svg width="32.41206359863281" height="32" viewBox="0 0 32.41206359863281 32" xmlns="http://www.w3.org/2000/svg" xmlns:xlink="http://www.w3.org/1999/xlink" fill="#000000"><g><path d="M 31.793,18 C 32.043,19.734 32.206,22.106 31.429,23.014 C 30.143,24.515 22,24.515 22,21.512 C 22,20 23.339,19.008 22.054,17.507 C 20.789,16.030 18.521,16.006 16,16.006 C 13.479,16.006 11.211,16.030 9.946,17.507 C 8.661,19.008 10,20 10,21.512 C 10,24.515 1.857,24.515 0.571,23.014 C -0.206,22.106 -0.043,19.734 0.207,18 C 0.4,16.842 0.886,15.594 2.443,14 C 2.443,14 2.443,14 2.443,14 C 4.779,11.82 8.313,10.039 15.875,10.001 L 15.875,10 C 15.917,10 15.958,10 16,10 C 16.042,10 16.083,10 16.125,10 L 16.125,10.001 C 23.687,10.039 27.221,11.82 29.557,14 C 29.557,14 29.557,14 29.557,14 C 31.114,15.594 31.601,16.842 31.793,18 Z"></path></g></svg>