<?xml version="1.0" encoding="utf-8"?> <!-- Generator: IcoMoon.io --> <!DOCTYPE svg PUBLIC "-//W3C//DTD SVG 1.1//EN" "http://www.w3.org/Graphics/SVG/1.1/DTD/svg11.dtd"> <svg width="32" height="32" viewBox="0 0 32 32" xmlns="http://www.w3.org/2000/svg" xmlns:xlink="http://www.w3.org/1999/xlink" fill="#000000"><g><path d="M 30.662,5.003C 26.174,4.358, 21.214,4, 16,4c-5.214,0-10.174,0.358-14.662,1.003 C 0.477,8.37,0,12.089,0,16c0,3.911, 0.477,7.63, 1.338,10.997C 5.826,27.642, 10.786,28, 16,28 c 5.214,0, 10.174-0.358, 14.662-1.003C 31.523,23.63, 32,19.911, 32,16C 32,12.089, 31.523,8.37, 30.662,5.003z M 12,22L 12,10 l 10,6L 12,22z"></path></g></svg>