<?xml version="1.0" encoding="utf-8"?> <!-- Generator: IcoMoon.io --> <!DOCTYPE svg PUBLIC "-//W3C//DTD SVG 1.1//EN" "http://www.w3.org/Graphics/SVG/1.1/DTD/svg11.dtd"> <svg width="32" height="32" viewBox="0 0 32 32" xmlns="http://www.w3.org/2000/svg" xmlns:xlink="http://www.w3.org/1999/xlink" fill="#000000"><g><path d="M 25,0L 5,0 C 3.35,0, 2,1.35, 2,3l0,26 c0,1.65, 1.35,3, 3,3l 20,0 c 1.65,0, 3-1.35, 3-3L 28,3 C 28,1.35, 26.65,0, 25,0z M 15,31 c-0.552,0-1-0.448-1-1s 0.448-1, 1-1s 1,0.448, 1,1S 15.552,31, 15,31z M 24,28L 6,28 L 6,4 l 18,0 L 24,28 z"></path></g></svg>