<?xml version="1.0" encoding="utf-8"?> <!-- Generator: IcoMoon.io --> <!DOCTYPE svg PUBLIC "-//W3C//DTD SVG 1.1//EN" "http://www.w3.org/Graphics/SVG/1.1/DTD/svg11.dtd"> <svg width="32" height="32" viewBox="0 0 32 32" xmlns="http://www.w3.org/2000/svg" xmlns:xlink="http://www.w3.org/1999/xlink" fill="#000000"><g><path d="M 26.668,0L 5.334,0 C 2.4,0, 0,2.4, 0,5.334l0,21.332 C 0,29.602, 2.4,32, 5.334,32L 26.668,32 C 29.602,32, 32,29.602, 32,26.666L 32,5.334 C 32,2.4, 29.601,0, 26.668,0z M 22.866,25.771 c-0.942,0.443-1.798,0.756-2.563,0.936c-0.765,0.178-1.593,0.267-2.481,0.267c-1.010,0-1.605-0.127-2.381-0.381 c-0.775-0.256-1.438-0.621-1.984-1.090c-0.549-0.473-0.928-0.975-1.14-1.506c-0.212-0.531-0.317-1.303-0.317-2.313L 12,13.941 l-3,0 l0-3.127 c 0.867-0.281, 1.873-0.685, 2.49-1.211c 0.62-0.527, 1.116-1.158, 1.49-1.896 c 0.375-0.736, 0.633-1.676, 0.773-2.815l 3.141,0 L 16.895,10 L 22,10 l0,3.941 l-5.106,0 l0,5.662 c0,1.281-0.017,2.020, 0.119,2.383 c 0.135,0.361, 0.473,0.736, 0.841,0.953c 0.489,0.293, 1.047,0.439, 1.676,0.439c 1.118,0, 2.231-0.363, 3.336-1.090L 22.866,25.771 L 22.866,25.771z"></path></g></svg>