<?xml version="1.0" encoding="utf-8"?> <!-- Generator: IcoMoon.io --> <!DOCTYPE svg PUBLIC "-//W3C//DTD SVG 1.1//EN" "http://www.w3.org/Graphics/SVG/1.1/DTD/svg11.dtd"> <svg width="32" height="32" viewBox="0 0 32 32" xmlns="http://www.w3.org/2000/svg" xmlns:xlink="http://www.w3.org/1999/xlink" fill="#000000"><g><path d="M 30.662,9.003c-2.775-0.399-5.731-0.688-8.815-0.851L 27,3l-2-2L 17.983,8.017 C 17.326,8.006, 16.665,8, 16,8l0,0L 8,0L 6,2l 6.069,6.069c-3.779,0.133-7.386,0.454-10.731,0.935 C 0.477,12.37,0,16.089,0,20s 0.477,7.63, 1.338,10.997C 5.826,31.642, 10.786,32, 16,32 c 5.214,0, 10.173-0.358, 14.662-1.003C 31.523,27.63, 32,23.911, 32,20S 31.523,12.37, 30.662,9.003z M 26.997,27.331 C 23.63,27.761, 19.911,28, 16,28c-3.911,0-7.63-0.239-10.997-0.669C 4.358,25.087, 4,22.607, 4,20 c0-2.607, 0.358-5.087, 1.003-7.331C 8.37,12.239, 12.089,12, 16,12c 3.91,0, 7.63,0.239, 10.996,0.669 C 27.642,14.913, 28,17.393, 28,20C 28,22.607, 27.642,25.087, 26.997,27.331z"></path></g></svg>