<?xml version="1.0" encoding="utf-8"?> <!-- Generator: IcoMoon.io --> <!DOCTYPE svg PUBLIC "-//W3C//DTD SVG 1.1//EN" "http://www.w3.org/Graphics/SVG/1.1/DTD/svg11.dtd"> <svg width="32" height="32" viewBox="0 0 32 32" xmlns="http://www.w3.org/2000/svg" xmlns:xlink="http://www.w3.org/1999/xlink" fill="#000000"><g><path d="M 24,16L 12,16 l0,4 c0,2.209, 1.791,4, 4,4l 2,0 l 3,0 l 3,0 c 2.209,0, 4,1.791, 4,4s-1.791,4-4,4l-3,0 l-3,0 l-2,0 C 9.373,32, 4,26.627, 4,20L 4,8 L 4,6 L 4,4 c0-2.209, 1.791-4, 4-4s 4,1.791, 4,4l0,2 l0,2 l 12,0 c 2.209,0, 4,1.791, 4,4S 26.209,16, 24,16z"></path></g></svg>