<?xml version="1.0" encoding="utf-8"?> <!-- Generator: IcoMoon.io --> <!DOCTYPE svg PUBLIC "-//W3C//DTD SVG 1.1//EN" "http://www.w3.org/Graphics/SVG/1.1/DTD/svg11.dtd"> <svg width="32" height="32" viewBox="0 0 32 32" xmlns="http://www.w3.org/2000/svg" xmlns:xlink="http://www.w3.org/1999/xlink" fill="#000000"><g><path d="M 22.969,25.168c-0.592-0.093-0.606-1.708-0.606-1.708s 1.74-1.708, 2.119-4.005 c 1.020,0, 1.65-2.442, 0.63-3.301c 0.043-0.904, 1.312-7.099-5.112-7.099c-6.424,0-5.155,6.195-5.112,7.099 c-1.020,0.859-0.39,3.301, 0.63,3.301c 0.379,2.297, 2.12,4.005, 2.12,4.005s-0.013,1.615-0.606,1.708 C 15.124,25.469, 8,28.584, 8,32l 12,0 l 12,0 C 32,28.584, 24.876,25.469, 22.969,25.168zM 10.752,25.713c 1.378-0.848, 3.051-1.635, 4.423-2.107c-0.492-0.701-1.040-1.654-1.385-2.783 c-0.481-0.393-0.873-0.954-1.125-1.644c-0.252-0.691-0.348-1.464-0.269-2.178c 0.056-0.512, 0.202-0.99, 0.427-1.409 c-0.136-1.456-0.232-4.314, 1.639-6.398c 0.725-0.808, 1.642-1.389, 2.741-1.74C 17.006,5.43, 15.978,3.055, 12,3.055 c-6.424,0-5.155,6.195-5.112,7.099c-1.020,0.859-0.39,3.301, 0.63,3.301c 0.379,2.297, 2.12,4.005, 2.12,4.005 s-0.013,1.615-0.606,1.708C 7.124,19.469,0,22.584,0,26l 10.3,0 C 10.447,25.904, 10.597,25.808, 10.752,25.713z"></path></g></svg>