<?xml version="1.0" encoding="utf-8"?> <!-- Generator: IcoMoon.io --> <!DOCTYPE svg PUBLIC "-//W3C//DTD SVG 1.1//EN" "http://www.w3.org/Graphics/SVG/1.1/DTD/svg11.dtd"> <svg width="32" height="32" viewBox="0 0 32 32" xmlns="http://www.w3.org/2000/svg" xmlns:xlink="http://www.w3.org/1999/xlink" fill="#000000"><g><path d="M 26.666,0L 5.334,0 C 2.4,0,0,2.401,0,5.334l0,21.332 C0,29.602, 2.4,32, 5.334,32l 21.332,0 C 29.6,32, 32,29.602, 32,26.666L 32,5.334 C 32,2.401, 29.6,0, 26.666,0z M 25.402,13.691 c-1.061,5.978-6.991,11.040-8.774,12.197c-1.784,1.156-3.411-0.463-4.001-1.687 c-0.675-1.397-2.7-8.967-3.23-9.594c-0.53-0.626-2.121,0.627-2.121,0.627l-0.772-1.012 c0,0, 3.231-3.858, 5.689-4.34c 2.606-0.511, 2.603,4.002, 3.229,6.508c 0.606,2.424, 1.014,3.811, 1.543,3.811 c 0.53,0, 1.543-1.352, 2.652-3.424c 1.111-2.074-0.048-3.907-2.218-2.603C 18.267,8.966, 26.463,7.714, 25.402,13.691z"></path></g></svg>