<?xml version="1.0" encoding="utf-8"?> <!-- Generator: IcoMoon.io --> <!DOCTYPE svg PUBLIC "-//W3C//DTD SVG 1.1//EN" "http://www.w3.org/Graphics/SVG/1.1/DTD/svg11.dtd"> <svg width="32" height="32" viewBox="0 0 32 32" xmlns="http://www.w3.org/2000/svg" xmlns:xlink="http://www.w3.org/1999/xlink" fill="#000000"><g><path d="M 12.882,15.997c-1.491-0.766-2.94-1.155-4.309-1.155c-0.186,0-0.373,0.006-0.561,0.022 c-1.746,0.144-3.341,0.605-4.367,0.963c-0.272,0.1-0.551,0.205-0.838,0.322L0,25.881 c 1.928-0.714, 3.634-1.061, 5.196-1.061c 2.526,0, 4.36,0.944, 5.875,1.916c 0.718-2.435, 2.439-8.315, 2.953-10.073 C 13.65,16.436, 13.271,16.208, 12.882,15.997zM 16.511,18.471l-2.826,9.817c 0.839,0.48, 3.659,2.002, 5.819,2.002c 1.744,0, 3.695-0.447, 5.964-1.369 l 2.699-9.437c-1.832,0.591-3.59,0.891-5.233,0.891C 19.934,20.376, 17.835,19.404, 16.511,18.471zM 9.151,11.525c 2.41,0.025, 4.192,0.944, 5.669,1.891l 2.898-9.917c-0.611-0.35-2.213-1.222-3.371-1.519 c-0.762-0.178-1.563-0.269-2.413-0.269c-1.619,0.030-3.387,0.436-5.403,1.244l-2.764,9.706 c 2.025-0.764, 3.77-1.136, 5.378-1.136C 9.148,11.525, 9.151,11.525, 9.151,11.525zM 32,6.191c-1.838,0.714-3.631,1.077-5.345,1.077c-2.865,0-4.978-0.994-6.347-1.949L 17.435,15.264 c 1.93,1.241, 4.009,1.871, 6.191,1.871c 1.78,0, 3.623-0.427, 5.483-1.272l-0.006-0.069l 0.117-0.028L 32,6.191z"></path></g></svg>