<?xml version="1.0" encoding="utf-8"?> <!-- Generator: IcoMoon.io --> <!DOCTYPE svg PUBLIC "-//W3C//DTD SVG 1.1//EN" "http://www.w3.org/Graphics/SVG/1.1/DTD/svg11.dtd"> <svg width="32" height="32" viewBox="0 0 32 32" xmlns="http://www.w3.org/2000/svg" xmlns:xlink="http://www.w3.org/1999/xlink" fill="#000000"><g><path d="M 29.048,16.079c-0.007,0.003-0.014,0.007-0.018,0.007c0,0.005,0,0.012,0,0.016 c-2.072,1.070-3.969,1.495-5.674,1.495c-2.581,0-4.722-0.975-6.367-2.179c-0.010-0.007-0.023-0.016-0.031-0.025L 19.95,4.057 c 0.946,0.807, 3.086,2.317, 6.329,2.317c 1.633,0, 3.541-0.382, 5.72-1.424L 29.048,16.079z M 9.383,11.67c-0.027,0-0.053,0-0.081,0 c-1.548,0-3.39,0.449-5.662,1.464L 6.558,1.918c 2.211-0.987, 4.010-1.385, 5.51-1.417c 0.011,0, 0.022,0, 0.034,0 c 0.882,0, 1.679,0.115, 2.384,0.298c 1.476,0.412, 3.598,1.803, 3.598,1.803L 18.084,2.61 c-0.608,2.28-2.408,9.036-3.015,11.286 C 13.485,12.747, 11.783,11.697, 9.383,11.67z M 8.255,14.403c 0.192-0.018, 0.383-0.024, 0.574-0.024c 1.684,0, 3.221,0.645, 4.324,1.264 c 0.472,0.278, 0.918,0.581, 1.361,0.882c-0.392,1.471-2.458,9.191-3.066,11.448c-1.639-1.194-3.376-2.254-5.881-2.254 c-1.521,0-3.329,0.395-5.566,1.383L 2.963,15.86c 0.337-0.15, 0.666-0.288, 0.985-0.414C 5.028,15.030, 6.566,14.558, 8.255,14.403z M 22.688,20.225c 1.572,0, 3.433-0.318, 5.592-1.165L 25.434,29.95c-2.454,1.108-4.416,1.549-6.057,1.549 c-2.593,0-6.049-2.333-6.045-2.33l 2.953-11.224C 17.184,18.73, 19.265,20.225, 22.688,20.225z"></path></g></svg>