<?xml version="1.0" encoding="utf-8"?>
<!-- Generator: IcoMoon.io  -->
<!DOCTYPE svg PUBLIC "-//W3C//DTD SVG 1.1//EN" "http://www.w3.org/Graphics/SVG/1.1/DTD/svg11.dtd">
<svg width="992" height="288" viewBox="0 0 992 288" data-tags="home, house, building" style="margin-left: 0px; margin-top: 0px;" xmlns="http://www.w3.org/2000/svg" fill="#000000"><path d="M 512.00,295.222 L 256.00,96.509 L 0.00,295.223 L 0.00,214.204 L 256.00,15.491 L 512.00,214.205 ZM 448.00,288.00 L 448.00,480.00 L 320.00,480.00 L 320.00,352.00 L 192.00,352.00 L 192.00,480.00 L 64.00,480.00 L 64.00,288.00 L 256.00,144.00 Z" transform="scale(0.0625 0.0625)"></path><path d="M 96,19L 90,13L 90,4L 86,4L 86,9L 80,3L 64,19L 64,20L 68,20L 68,30L 78,30L 78,24L 82,24L 82,30L 92,30L 92,20L 96,20 z"></path><path d="M 156,6 L 132,6 L 132,26 L 156,26 L 156,6 Z M 160,2 L 160,2 L 160,30 L 128,30 L 128,2 L 160,2 ZM 154,24 L 134,24 L 134,20 L 140,10 L 148.219,20 L 154,16 L 154,18 ZM 148,11A3,3 2520 1 0 154,11A3,3 2520 1 0 148,11z"></path><path d="M 201.5,19c0,3.59, 2.91,6.5, 6.5,6.5s 6.5-2.91, 6.5-6.5s-2.91-6.5-6.5-6.5S 201.5,15.41, 201.5,19z M 222,8L 215,8 
	c-0.5-2-1-4-3-4L 204,4 c-2,0-2.5,2-3,4L 194,8 c-1.1,0-2,0.9-2,2l0,18 c0,1.1, 0.9,2, 2,2l 28,0 c 1.1,0, 2-0.9, 2-2L 224,10 
	C 224,8.9, 223.1,8, 222,8z M 208,27.875c-4.902,0-8.875-3.973-8.875-8.875c0-4.902, 3.973-8.875, 8.875-8.875c 4.902,0, 8.875,3.973, 8.875,8.875
	C 216.875,23.902, 212.902,27.875, 208,27.875z M 222,14l-4,0 l0-2 l 4,0 L 222,14 z"></path><path d="M 266,6 L 288,0 L 288,2 L 288,6 L 288,23 C 288,25.761 284.866,28 281,28 C 277.134,28 274,25.761 274,23 C 274,20.239 277.134,18 281,18 C 282.074,18 283.091,18.173 284,18.481 L 284,8.182 L 270,12 L 270,27 C 270,29.761 266.866,32 263,32 C 259.134,32 256,29.761 256,27 C 256,24.239 259.134,22 263,22 C 264.074,22 265.091,22.173 266,22.481 L 266,12 L 266,6 Z"></path><path d="M 350.662,5.003C 346.174,4.358, 341.214,4, 336,4c-5.214,0-10.174,0.358-14.662,1.003
	C 320.477,8.37, 320,12.089, 320,16c0,3.911, 0.477,7.63, 1.338,10.997C 325.826,27.642, 330.786,28, 336,28
	c 5.214,0, 10.174-0.358, 14.662-1.003C 351.523,23.63, 352,19.911, 352,16C 352,12.089, 351.523,8.37, 350.662,5.003z
	 M 332,22L 332,10 l 10,6L 332,22z"></path><path d="M 384,4l0,24 l 32,0 L 416,4 L 384,4 z M 390,26L 386,26 l0-4 l 4,0 L 390,26 z M 390,18L 386,18 l0-4 l 4,0 L 390,18 z M 390,10L 386,10 L 386,6 l 4,0 L 390,10 z M 408,26L 392,26 L 392,6 l 16,0 L 408,26 z
		 M 414,26l-4,0 l0-4 l 4,0 L 414,26 z M 414,18l-4,0 l0-4 l 4,0 L 414,18 z M 414,10l-4,0 L 410,6 l 4,0 L 414,10 zM 396,10L 396,22L 404,16 	z"></path><path d="M 468,18 C 471.308,18 474.308,19.346 476.481,21.519 L 473.654,24.346 C 472.206,22.897 470.206,22 468,22 C 465.794,22 463.794,22.897 462.346,24.346 L 459.519,21.519 C 461.692,19.346 464.692,18 468,18 ZM 453.858,15.858 C 457.635,12.080 462.658,10 468,10 C 473.342,10 478.365,12.080 482.142,15.858 L 479.314,18.686 L 479.314,18.686 C 476.292,15.664 472.274,14 468,14 C 463.726,14 459.708,15.664 456.686,18.686 L 453.858,15.858 ZM 478.899,4.201 C 482.234,5.612 485.228,7.63 487.799,10.201 L 487.799,10.201 L 484.971,13.029 C 480.438,8.496 474.411,6 468,6 C 461.589,6 455.563,8.496 451.029,13.029 L 448.201,10.201 C 450.772,7.63 453.766,5.612 457.101,4.201 C 460.554,2.741 464.221,2 468,2 C 471.779,2 475.446,2.741 478.899,4.201 ZM 466,28A2,2 2520 1 0 470,28A2,2 2520 1 0 466,28z"></path><path d="M 524,16A4,4 2520 1 0 532,16A4,4 2520 1 0 524,16zM 532.761,7.204 C 535.881,8.896 538,12.201 538,16 C 538,19.799 535.881,23.104 532.761,24.796 C 534.138,22.605 535,19.475 535,16 C 535,12.525 534.138,9.395 532.761,7.204 ZM 521,16 C 521,19.475 521.862,22.605 523.239,24.796 C 520.119,23.104 518,19.799 518,16 C 518,12.201 520.119,8.896 523.239,7.204 C 521.862,9.395 521,12.525 521,16 ZM 515,16 C 515,21.372 516.7,26.193 519.395,29.491 C 514.948,26.649 512,21.669 512,16 C 512,10.331 514.948,5.351 519.395,2.509 C 516.7,5.807 515,10.628 515,16 ZM 536.605,2.509 C 541.052,5.351 544,10.331 544,16 C 544,21.669 541.052,26.649 536.605,29.491 C 539.3,26.193 541,21.372 541,16 C 541,10.628 539.3,5.807 536.605,2.509 Z"></path><path d="M 603,0L 579,0 C 577.35,0, 576,1.35, 576,3l0,26 c0,1.65, 1.35,3, 3,3l 24,0 c 1.65,0, 3-1.35, 3-3L 606,3 C 606,1.35, 604.65,0, 603,0z M 602,28L 580,28 
		L 580,4 l 22,0 L 602,28 zM 584,14L 598,14L 598,16L 584,16zM 584,18L 598,18L 598,20L 584,20zM 584,22L 598,22L 598,24L 584,24zM 584,10L 598,10L 598,12L 584,12z"></path><path d="M 667,0L 643,0 C 641.35,0, 640,1.35, 640,3l0,26 c0,1.65, 1.35,3, 3,3l 24,0 c 1.65,0, 3-1.35, 3-3L 670,3 C 670,1.35, 668.65,0, 667,0z M 666,28L 644,28 
		L 644,4 l 22,0 L 666,28 zM 648,18L 662,18L 662,20L 648,20zM 648,22L 662,22L 662,24L 648,24zM 650,9A3,3 4680 1 0 656,9A3,3 4680 1 0 650,9zM 655,12l-4,0 c-1.65,0-3,0.9-3,2l0,2 l 10,0 l0-2 C 658,12.9, 656.65,12, 655,12z"></path><path d="M 726,20c-2,2-2,4-4,4s-4-2-6-4s-4-4-4-6s 2-2, 4-4S 712,2, 710,2S 704,8, 704,8c0,4, 4.109,12.109, 8,16
	s 12,8, 16,8c0,0, 6-4, 6-6S 728,18, 726,20z"></path><path d="M 799.793,18 C 800.043,19.734 800.206,22.106 799.429,23.014 C 798.143,24.515 790,24.515 790,21.512 C 790,20 791.339,19.008 790.054,17.507 C 788.789,16.030 786.521,16.006 784,16.006 C 781.479,16.006 779.211,16.030 777.946,17.507 C 776.661,19.008 778,20 778,21.512 C 778,24.515 769.857,24.515 768.571,23.014 C 767.794,22.106 767.957,19.734 768.207,18 C 768.4,16.842 768.886,15.594 770.443,14 C 770.443,14 770.443,14 770.443,14 C 772.779,11.82 776.313,10.039 783.875,10.001 L 783.875,10 C 783.917,10 783.958,10 784,10 C 784.042,10 784.083,10 784.125,10 L 784.125,10.001 C 791.687,10.039 795.221,11.82 797.557,14 C 797.557,14 797.557,14 797.557,14 C 799.114,15.594 799.601,16.842 799.793,18 Z"></path><path d="M 862,8c 1.105,0, 2-0.895, 2-2L 864,2 l-4,0 L 860,0 L 834,0 C 832.9,0, 832,0.9, 832,2l0,28 c0,1.1, 0.9,2, 2,2l 26,0 L 860,24 l 2,0 
	c 1.105,0, 2-0.895, 2-2l0-4 l-4,0 l0-2 l 2,0 c 1.105,0, 2-0.895, 2-2l0-4 l-4,0 l0-2 L 862,8 z M 850,8.010
	c 2.203,0, 3.99,1.786, 3.99,3.99s-1.786,3.99-3.99,3.99c-2.203,0-3.99-1.786-3.99-3.99
	S 847.797,8.010, 850,8.010z M 840,30L 838,30 L 838,2 l 2,0 L 840,30 z M 856,24L 844,24 l0-2 c0-2.209, 1.791-4, 4-4l0,0 l 4,0 c 2.209,0, 4,1.791, 4,4
	L 856,24 z"></path><path d="M 924.074,2L 900,2 l0,4 L 897.074,6 C 896.524,6, 896,6.391, 896,6.941l0,2 C 896,9.492, 896.524,10, 897.074,10L 900,10 l0,2 L 897.074,12 
	C 896.524,12, 896,12.392, 896,12.941l0,2 C 896,15.492, 896.524,16, 897.074,16L 900,16 l0,2 L 897.074,18 C 896.524,18, 896,18.392, 896,18.942l0,2 
	C 896,21.491, 896.524,22, 897.074,22L 900,22 l0,2 L 897.074,24 C 896.524,24, 896,24.392, 896,24.942l0,2 C 896,27.491, 896.524,28, 897.074,28L 900,28 l0,4 l 24.074,0 
	c 1.105,0, 1.926-0.954, 1.926-2.058l0-26 C 926,2.837, 925.178,2, 924.074,2z M 906,30L 902,30 l0-2 l 1.074,0 c 0.55,0, 0.926-0.508, 0.926-1.058
	l0-2 c0-0.55-0.376-0.942-0.926-0.942L 902,24 l0-2 l 1.074,0 c 0.55,0, 0.926-0.508, 0.926-1.058l0-2 c0-0.55-0.376-0.942-0.926-0.942L 902,18 l0-2 
	l 1.074,0 c 0.55,0, 0.926-0.508, 0.926-1.058l0-2 c0-0.55-0.376-0.942-0.926-0.942L 902,12 l0-2 l 1.074,0 c 0.55,0, 0.926-0.508, 0.926-1.058l0-2 
	C 904,6.391, 903.624,6, 903.074,6L 902,6 L 902,4 l 4,0 L 906,30 z"></path><path d="M 976,0C 970.477,0, 966,4.477, 966,10c0,10, 10,22, 10,22s 10-12, 10-22C 986,4.477, 981.523,0, 976,0z M 976,16
	c-3.314,0-6-2.686-6-6s 2.686-6, 6-6s 6,2.686, 6,6S 979.314,16, 976,16z"></path><path d="M 16,64C 10.477,64, 6,68.477, 6,74c0,10, 10,22, 10,22s 10-12, 10-22C 26,68.477, 21.523,64, 16,64z M 16,80.125
	c-3.383,0-6.125-2.742-6.125-6.125s 2.742-6.125, 6.125-6.125s 6.125,2.742, 6.125,6.125S 19.383,80.125, 16,80.125zM 12.125,74A3.875,3.875 1080 1 0 19.875,74A3.875,3.875 1080 1 0 12.125,74z"></path><path d="M 84.586,87.414L 78,80.828L 78,72L 82,72L 82,79.172L 87.414,84.586 	zM 80,64C 71.163,64, 64,71.163, 64,80s 7.163,16, 16,16s 16-7.163, 16-16S 88.837,64, 80,64z M 80,92
		c-6.627,0-12-5.373-12-12c0-6.627, 5.373-12, 12-12c 6.627,0, 12,5.373, 12,12C 92,86.627, 86.627,92, 80,92z"></path><path d="M 138,76L 142,76L 142,80L 138,80zM 144,76L 148,76L 148,80L 144,80zM 150,76L 154,76L 154,80L 150,80zM 132,88L 136,88L 136,92L 132,92zM 138,88L 142,88L 142,92L 138,92zM 144,88L 148,88L 148,92L 144,92zM 138,82L 142,82L 142,86L 138,86zM 144,82L 148,82L 148,86L 144,86zM 150,82L 154,82L 154,86L 150,86zM 132,82L 136,82L 136,86L 132,86zM 154,64l0,2 l-4,0 L 150,64 L 136,64 l0,2 L 132,66 L 132,64 L 128,64 l0,32 l 30,0 L 158,64 L 154,64 z M 156,94L 130,94 L 130,72 l 26,0 L 156,94 z"></path><path d="M 220,68l-3,0 l0,1 c0,1.103-0.897,2-2,2s-2-0.897-2-2L 213,68 L 203,68 l0,1 c0,1.103-0.897,2-2,2s-2-0.897-2-2L 199,68 L 196,68 
		c-1.1,0-2,0.9-2,2l0,22 c0,1.1, 0.9,2, 2,2l 24,0 c 1.1,0, 2-0.9, 2-2L 222,70 C 222,68.9, 221.1,68, 220,68z M 220,91.996
		c-0.001,0.001-0.002,0.003-0.004,0.004L 196.004,92 c-0.001-0.001-0.003-0.002-0.004-0.004L 196,74 l 24,0 L 220,91.996 zM 201,70c 0.552,0, 1-0.448, 1-1L 202,65 c0-0.552-0.448-1-1-1s-1,0.448-1,1l0,4 C 200,69.552, 200.448,70, 201,70zM 215,70c 0.552,0, 1-0.448, 1-1L 216,65 c0-0.552-0.448-1-1-1s-1,0.448-1,1l0,4 C 214,69.552, 214.448,70, 215,70zM 210,76L 200,76L 200,78L 208,78L 208,82L 200,82L 200,84L 208,84L 208,88L 200,88L 200,90L 210,90 	zM 214,90L 216,90L 216,76L 212,76L 212,78L 214,78 	zM 219.25,94.75L 196.75,94.75 c-1.1,0-2-0.65-2-1.75l0,1 c0,1.1, 0.9,2, 2,2l 22.5,0 c 1.1,0, 2-0.9, 2-2l0-1 C 221.25,94.1, 220.35,94.75, 219.25,94.75z"></path><path d="M 288,90L 288,66 L 256,66 l0,24 l 14,0 l0,2 l-6,0 l0,2 l 16,0 l0-2 l-6,0 l0-2 L 288,90 z M 260,70l 24,0 l0,16 L 260,86 L 260,70 z"></path><path d="M 345,64L 325,64 C 323.35,64, 322,65.35, 322,67l0,26 c0,1.65, 1.35,3, 3,3l 20,0 c 1.65,0, 3-1.35, 3-3L 348,67 C 348,65.35, 346.65,64, 345,64z M 335,95
	c-0.552,0-1-0.448-1-1s 0.448-1, 1-1s 1,0.448, 1,1S 335.552,95, 335,95z M 344,92L 326,92 L 326,68 l 18,0 L 344,92 z"></path><path d="M 414.662,73.003c-2.775-0.399-5.731-0.688-8.815-0.851L 411,67l-2-2L 401.983,72.017
	C 401.326,72.006, 400.665,72, 400,72l0,0L 392,64L 390,66l 6.069,6.069c-3.779,0.133-7.386,0.454-10.731,0.935
	C 384.477,76.37, 384,80.089, 384,84s 0.477,7.63, 1.338,10.997C 389.826,95.642, 394.786,96, 400,96
	c 5.214,0, 10.173-0.358, 14.662-1.003C 415.523,91.63, 416,87.911, 416,84S 415.523,76.37, 414.662,73.003z M 410.997,91.331
	C 407.63,91.761, 403.911,92, 400,92c-3.911,0-7.63-0.239-10.997-0.669C 388.358,89.087, 388,86.607, 388,84
	c0-2.607, 0.358-5.087, 1.003-7.331C 392.37,76.239, 396.089,76, 400,76c 3.91,0, 7.63,0.239, 10.996,0.669
	C 411.642,78.913, 412,81.393, 412,84C 412,86.607, 411.642,89.087, 410.997,91.331z"></path><path d="M 471.808,96C 475.362,89.561, 475.961,79.74, 462,80.068L 462,88 L 450,76L 462,64l0,7.762 
	C 478.718,71.326, 480.58,86.518, 471.808,96z"></path><path d="M 530,71.762L 530,64 l 12,12L 530,88L 530,80.068 C 516.039,79.74, 516.638,89.561, 520.192,96
	C 511.42,86.518, 513.282,71.326, 530,71.762z"></path><path d="M 592,66 C 600.837,66 608,71.82 608,79 C 608,86.18 600.837,92 592,92 C 591.151,92 590.318,91.946 589.505,91.842 C 586.069,95.279 581.966,95.895 578,95.986 L 578,95.145 C 580.142,94.096 582,92.184 582,90 C 582,89.695 581.976,89.396 581.932,89.103 C 578.314,86.72 576,83.080 576,79 C 576,71.82 583.163,66 592,66 Z"></path><path d="M 656,70 C 654.283,70 652.625,70.271 651.072,70.804 C 649.612,71.306 648.313,72.015 647.209,72.912 C 645.139,74.593 644,76.755 644,79 C 644,80.259 644.35,81.481 645.039,82.63 C 645.75,83.815 646.82,84.898 648.133,85.763 C 649.081,86.387 649.719,87.386 649.888,88.509 C 649.944,88.884 649.979,89.262 649.993,89.638 C 650.227,89.445 650.454,89.237 650.677,89.014 C 651.432,88.259 652.451,87.842 653.505,87.842 C 653.673,87.842 653.842,87.853 654.010,87.874 C 654.666,87.958 655.335,88 656,88 C 657.717,88 659.375,87.729 660.928,87.196 C 662.388,86.694 663.688,85.985 664.791,85.088 C 666.86,83.407 668,81.245 668,79 C 668,76.755 666.86,74.593 664.791,72.912 C 663.688,72.015 662.388,71.306 660.928,70.804 C 659.375,70.271 657.717,70 656,70 Z M 656,66 L 656,66 C 664.837,66 672,71.82 672,79 C 672,86.18 664.837,92 656,92 C 655.151,92 654.318,91.946 653.505,91.842 C 650.069,95.279 645.966,95.895 642,95.986 L 642,95.145 C 644.142,94.096 646,92.184 646,90 C 646,89.695 645.976,89.396 645.932,89.103 C 642.314,86.72 640,83.080 640,79 C 640,71.82 647.163,66 656,66 Z"></path><path d="M 723.463,85.96c-0.691-0.11-0.707-2.010-0.707-2.010s 2.030-2.010, 2.473-4.713
	c 1.19,0, 1.926-2.873, 0.735-3.884C 726.014,74.29, 727.494,67, 720,67c-7.494,0-6.014,7.29-5.965,8.354
	c-1.19,1.011-0.455,3.884, 0.735,3.884c 0.442,2.703, 2.473,4.713, 2.473,4.713s-0.016,1.9-0.707,2.010
	C 714.311,86.315, 706,89.98, 706,94l 14,0 l 14,0 C 734,89.98, 725.689,86.315, 723.463,85.96z"></path><path d="M 790.969,89.168c-0.592-0.093-0.606-1.708-0.606-1.708s 1.74-1.708, 2.119-4.005
	c 1.020,0, 1.65-2.442, 0.63-3.301c 0.043-0.904, 1.312-7.099-5.112-7.099c-6.424,0-5.155,6.195-5.112,7.099
	c-1.020,0.859-0.39,3.301, 0.63,3.301c 0.379,2.297, 2.12,4.005, 2.12,4.005s-0.013,1.615-0.606,1.708
	C 783.124,89.469, 776,92.584, 776,96l 12,0 l 12,0 C 800,92.584, 792.876,89.469, 790.969,89.168zM 778.752,89.713c 1.378-0.848, 3.051-1.635, 4.423-2.107c-0.492-0.701-1.040-1.654-1.385-2.783
	c-0.481-0.393-0.873-0.954-1.125-1.644c-0.252-0.691-0.348-1.464-0.269-2.178c 0.056-0.512, 0.202-0.99, 0.427-1.409
	c-0.136-1.456-0.232-4.314, 1.639-6.398c 0.725-0.808, 1.642-1.389, 2.741-1.74C 785.006,69.43, 783.978,67.055, 780,67.055
	c-6.424,0-5.155,6.195-5.112,7.099c-1.020,0.859-0.39,3.301, 0.63,3.301c 0.379,2.297, 2.12,4.005, 2.12,4.005
	s-0.013,1.615-0.606,1.708C 775.124,83.469, 768,86.584, 768,90l 10.3,0 C 778.447,89.904, 778.597,89.808, 778.752,89.713z"></path><path d="M 862.5,96L 841.5,96 c-0.828,0-1.5-0.672-1.5-1.5c0-2.152, 0.908-4.756, 2.43-6.967c 1.272-1.847, 2.834-3.238, 4.521-4.050
		c-0.744-0.676-1.384-1.501-1.891-2.441c-0.813-1.508-1.242-3.252-1.242-5.042c0-2.488, 0.819-4.838, 2.306-6.618
		C 847.676,67.523, 849.763,66.5, 852,66.5s 4.324,1.023, 5.876,2.882c 1.487,1.78, 2.306,4.131, 2.306,6.618
		c0,1.79-0.429,3.533-1.242,5.042c-0.507,0.941-1.147,1.765-1.891,2.441c 1.687,0.812, 3.25,2.203, 4.521,4.050
		C 863.092,89.744, 864,92.348, 864,94.5C 864,95.328, 863.328,96, 862.5,96z M 843.19,93l 17.62,0 
		c-0.288-1.229-0.891-2.575-1.711-3.766c-1.295-1.882-2.912-3.113-4.551-3.466c-0.691-0.149-1.184-0.76-1.184-1.466
		l0-1.072 c0-0.539, 0.29-1.037, 0.758-1.304c 1.859-1.057, 3.060-3.383, 3.060-5.926c0-3.584-2.325-6.5-5.182-6.5
		s-5.182,2.916-5.182,6.5c0,2.542, 1.201,4.869, 3.060,5.926c 0.469,0.267, 0.758,0.764, 0.758,1.304l0,1.072 
		c0,0.707-0.493,1.317-1.184,1.466c-1.639,0.353-3.256,1.584-4.551,3.466C 844.081,90.425, 843.478,91.771, 843.19,93zM 838.16,91l-2.97,0 c 0.288-1.229, 0.891-2.575, 1.711-3.766c 1.296-1.882, 2.912-3.113, 4.551-3.466
		c 0.691-0.149, 1.184-0.76, 1.184-1.466l0-1.072 c0-0.539-0.29-1.037-0.758-1.304c-1.859-1.057-3.060-3.383-3.060-5.926
		c0-3.584, 2.325-6.5, 5.182-6.5c 0.195,0, 0.388,0.014, 0.578,0.041c 0.824-0.917, 1.757-1.662, 2.77-2.219
		C 846.311,64.783, 845.176,64.5, 844,64.5c-2.237,0-4.324,1.023-5.876,2.882C 836.637,69.162, 835.818,71.512, 835.818,74
		c0,1.79, 0.429,3.533, 1.242,5.042c 0.507,0.941, 1.147,1.765, 1.891,2.441c-1.687,0.812-3.25,2.203-4.521,4.050
		C 832.908,87.744, 832,90.348, 832,92.5c0,0.828, 0.672,1.5, 1.5,1.5l 4.137,0 C 837.683,93.030, 837.862,92.018, 838.16,91z"></path><path d="M 904,74A8,8 12600 1 0 920,74A8,8 12600 1 0 904,74zM 920,84L 904,84 C 899.582,84, 896,87.582, 896,92l0,2 l 0.252,0 l 31.496,0 L 928,94 l0-2 C 928,87.582, 924.418,84, 920,84z"></path><path d="M 970,70A6,6 10800 1 0 982,70A6,6 10800 1 0 970,70zM 984.002,78l-0.005,0 l-1.102,0 l-6.222,12.633L 979,79l-3-3l-3,3l 2.327,11.633L 969.105,78l-1.102,0 l-0.005,0 
		C 964,78, 964,80.687, 964,84l0,10 l 24,0 L 988,84 C 988,80.687, 988,78, 984.002,78z"></path><path d="M 30,134L 30,132L 16,136L 2,132L 2,134L 12,138L 12,146L 8,160L 10,160L 16,146L 22,160L 24,160L 20,146L 20,138 	zM 13,131A3,3 12600 1 0 19,131A3,3 12600 1 0 13,131z"></path><path d="M 79,130C 70.716,130, 64,136.716, 64,145c0,8.284, 6.716,15, 15,15c 8.284,0, 15-6.716, 15-15
	C 94,136.716, 87.284,130, 79,130z M 87.487,150c 0.268-1.264, 0.437-2.606, 0.492-4l 3.983,0 c-0.104,1.381-0.426,2.722-0.959,4
	L 87.487,150 z M 70.513,140c-0.268,1.264-0.437,2.606-0.492,4L 66.038,144 c 0.104-1.381, 0.426-2.722, 0.959-4L 70.513,140 z M 85.439,140
	c 0.3,1.28, 0.481,2.62, 0.54,4L 80,144 l0-4 L 85.439,140 z M 80,138L 80,132.146 c 0.456,0.133, 0.908,0.355, 1.351,0.668
	c 0.831,0.586, 1.625,1.488, 2.298,2.609c 0.465,0.775, 0.867,1.638, 1.203,2.578L 80,138 z M 74.351,135.422
	c 0.673-1.121, 1.467-2.023, 2.298-2.609c 0.443-0.313, 0.895-0.535, 1.351-0.668L 78,138 l-4.852,0 
	C 73.484,137.060, 73.886,136.197, 74.351,135.422z M 78,140l0,4 l-5.979,0 c 0.059-1.38, 0.24-2.72, 0.54-4L 78,140 z M 66.997,150
	c-0.533-1.278-0.854-2.619-0.959-4l 3.983,0 c 0.055,1.394, 0.224,2.736, 0.492,4L 66.997,150 z M 72.021,146L 78,146 l0,4 l-5.439,0 
	C 72.261,148.72, 72.080,147.38, 72.021,146z M 78,152l0,5.854 c-0.456-0.133-0.908-0.355-1.351-0.668
	c-0.831-0.586-1.625-1.488-2.298-2.609c-0.465-0.775-0.867-1.638-1.203-2.578L 78,152 z M 83.649,154.578
	c-0.673,1.121-1.467,2.023-2.298,2.609c-0.443,0.312-0.895,0.535-1.351,0.668L 80,152 l 4.852,0 
	C 84.516,152.94, 84.114,153.802, 83.649,154.578z M 80,150l0-4 l 5.979,0 c-0.059,1.38-0.24,2.72-0.54,4L 80,150 z M 87.98,144
	c-0.055-1.394-0.224-2.736-0.492-4l 3.516,0 c 0.533,1.278, 0.855,2.619, 0.959,4L 87.98,144 z M 89.958,138l-2.997,0 
	c-0.582-1.836-1.387-3.447-2.354-4.732c 1.329,0.636, 2.533,1.488, 3.585,2.54C 88.864,136.479, 89.454,137.212, 89.958,138
	z M 69.808,135.808c 1.052-1.052, 2.256-1.904, 3.585-2.54c-0.967,1.285-1.771,2.896-2.354,4.732L 68.042,138 
	C 68.546,137.212, 69.136,136.479, 69.808,135.808z M 68.042,152l 2.997,0 c 0.583,1.836, 1.387,3.447, 2.354,4.732
	c-1.329-0.636-2.533-1.488-3.585-2.54C 69.136,153.521, 68.546,152.788, 68.042,152z M 88.192,154.192
	c-1.052,1.052-2.256,1.904-3.585,2.54c 0.967-1.285, 1.771-2.896, 2.354-4.732l 2.997,0 
	C 89.454,152.788, 88.864,153.521, 88.192,154.192z"></path><path d="M 155.314,132.686 C 158.336,135.708 160,139.726 160,144 C 160,148.274 158.336,152.292 155.314,155.314 C 152.292,158.336 148.274,160 144,160 C 139.726,160 135.708,158.336 132.686,155.314 C 129.664,152.292 128,148.274 128,144 C 128,139.726 129.664,135.708 132.686,132.686 C 135.708,129.664 139.726,128 144,128 C 148.274,128 152.292,129.664 155.314,132.686 Z M 153.899,153.9 C 155.87,151.929 157.18,149.474 157.721,146.804 C 157.299,147.424 156.897,147.654 156.647,146.266 C 156.39,144.004 154.313,145.449 153.006,144.646 C 151.631,145.572 148.54,142.844 149.066,145.921 C 149.876,147.309 153.441,144.064 151.664,147.001 C 150.53,149.051 147.519,153.592 147.911,155.946 C 147.96,159.376 144.406,156.661 143.182,155.524 C 142.358,153.245 142.901,149.262 140.748,148.146 C 138.41,148.045 136.404,147.832 135.498,145.219 C 134.953,143.349 136.078,140.566 138.082,140.136 C 141.014,138.294 142.062,142.294 144.813,142.369 C 145.667,141.475 147.994,141.191 148.187,140.189 C 146.383,139.87 150.477,138.671 148.015,137.989 C 146.656,138.149 145.781,139.398 146.503,140.457 C 143.871,141.071 143.786,136.647 141.256,138.043 C 141.192,140.249 137.124,138.758 139.848,138.31 C 140.785,137.902 138.322,136.716 139.652,136.932 C 140.306,136.896 142.506,136.125 141.911,135.607 C 143.136,134.846 144.166,137.428 145.365,135.548 C 146.231,134.102 145.002,133.835 143.917,134.568 C 143.305,133.883 144.997,132.403 146.49,131.764 C 146.987,131.55 147.462,131.434 147.825,131.467 C 148.577,132.336 149.968,132.486 150.040,131.363 C 148.178,130.471 146.125,130 144,130 C 140.949,130 138.048,130.97 135.647,132.762 C 136.292,133.058 136.658,133.426 136.037,133.896 C 135.554,135.336 133.594,137.268 131.873,136.994 C 130.98,138.535 130.392,140.232 130.14,142.011 C 131.581,142.487 131.913,143.431 131.604,143.746 C 130.87,144.387 130.418,145.294 130.186,146.288 C 130.655,149.158 132.004,151.803 134.101,153.9 C 136.745,156.544 140.26,158 144,158 C 147.739,158 151.255,156.544 153.899,153.9 Z"></path><path d="M 224,140.408L 212.944,138.801L 208,128.783l-4.944,10.018L 192,140.408l 8,7.798L 198.112,159.217L 208,154.018l 9.889,5.199
	l-1.889-11.011L 224,140.408z"></path><path d="M 272,128C 263.163,128, 256,135.163, 256,144s 7.163,16, 16,16s 16-7.163, 16-16S 280.837,128, 272,128z M 272,157
		c-7.18,0-13-5.82-13-13S 264.82,131, 272,131s 13,5.82, 13,13S 279.18,157, 272,157zM 270,136L 274,136L 274,140L 270,140zM 276,152L 268,152L 268,150L 270,150L 270,144L 268,144L 268,142L 274,142L 274,150L 276,150 z"></path><path d="M 336,128C 327.163,128, 320,135.163, 320,144s 7.163,16, 16,16s 16-7.163, 16-16S 344.837,128, 336,128z M 334,134l 4,0 l0,4 l-4,0 L 334,134 z
	 M 340,154L 332,154 l0-2 l 2,0 L 334,144 l-2,0 l0-2 l 6,0 l0,10 l 2,0 L 340,154 z"></path><path d="M 410.667,128L 389.334,128 C 386.4,128, 384,130.4, 384,133.334l0,21.332 C 384,157.602, 386.4,160, 389.334,160l 21.333,0 
	C 413.601,160, 416,157.602, 416,154.666L 416,133.334 C 416,130.4, 413.601,128, 410.667,128z M 410.667,132c 0.25,0, 0.486,0.073, 0.688,0.198
	L 400,141.586L 388.645,132.198C 388.848,132.073, 389.084,132, 389.334,132L 410.667,132 z M 389.334,156c-0.060,0-0.119-0.005-0.178-0.013
	l 7.051-9.78l-0.914-0.914L 388,152.586L 388,133.488 L 400,148L 412,133.488l0,19.098 L 404.707,145.293l-0.914,0.914l 7.051,9.78
	c-0.058,0.008-0.117,0.013-0.177,0.013L 389.334,156 z"></path><path d="M 474.667,128L 453.334,128 C 450.4,128, 448,130.4, 448,133.334l0,21.332 C 448,157.602, 450.4,160, 453.334,160l 21.333,0 
	C 477.601,160, 480,157.602, 480,154.666L 480,133.334 C 480,130.4, 477.601,128, 474.667,128z M 453.707,155.707l-2.414-2.414l 8-8
	l 0.914,0.914L 453.707,155.707z M 452.793,134.207l 0.914-0.914L 464,141.586L 474.293,133.293l 0.914,0.914L 464,147.414L 452.793,134.207z
	 M 474.293,155.707l-6.5-9.5l 0.914-0.914l 8,8L 474.293,155.707z"></path><path d="M 529.471,130c0,0-6.28,0-8.373,0C 517.344,130, 513.811,132.844, 513.811,136.138c0,3.366, 2.559,6.083, 6.378,6.083
		c 0.266,0, 0.524-0.005, 0.776-0.024c-0.248,0.475-0.425,1.009-0.425,1.564c0,0.936, 0.503,1.694, 1.14,2.313
		c-0.481,0-0.945,0.014-1.452,0.014C 515.579,146.089, 512,149.050, 512,152.121c0,3.024, 3.923,4.916, 8.573,4.916
		c 5.301,0, 8.228-3.008, 8.228-6.032c0-2.425-0.716-3.877-2.928-5.442c-0.757-0.536-2.204-1.839-2.204-2.604
		c0-0.897, 0.256-1.34, 1.607-2.395c 1.385-1.082, 2.365-2.603, 2.365-4.372c0-2.106-0.938-4.159-2.699-4.837l 2.655,0 
		L 529.471,130z M 526.546,150.483c 0.066,0.28, 0.103,0.569, 0.103,0.863c0,2.444-1.575,4.353-6.093,4.353
		c-3.214,0-5.535-2.034-5.535-4.478c0-2.395, 2.879-4.389, 6.093-4.354c 0.75,0.008, 1.449,0.129, 2.083,0.334
		C 524.942,148.415, 526.193,149.101, 526.546,150.483z M 521.401,141.368c-2.157-0.065-4.207-2.413-4.58-5.246
		c-0.372-2.833, 1.074-5.001, 3.231-4.937c 2.157,0.065, 4.207,2.338, 4.58,5.171
		C 525.004,139.189, 523.557,141.433, 521.401,141.368zM 538,136L 538,130L 536,130L 536,136L 530,136L 530,138L 536,138L 536,144L 538,144L 538,138L 544,138L 544,136 	z"></path><path d="M 602.667,128L 581.334,128 C 578.4,128, 576,130.4, 576,133.334l0,21.332 C 576,157.602, 578.4,160, 581.334,160l 21.333,0
	c 2.934,0, 5.333-2.398, 5.333-5.334L 608,133.334 C 608,130.4, 605.601,128, 602.667,128z M 603.206,144L 598,144 l0,14 l-6,0 L 592,144 l-2.891,0 l0-4.58 L 592,139.42 
	l0-2.975 C 592,132.403, 593.744,130, 598.496,130l 5.476,0 l0,4.955 l-4.473,0 c-1.328-0.002-1.492,0.692-1.492,1.985L 598,139.42l 6,0 
	L 603.206,144z"></path><path d="M 656,128 C 664.837,128 672,135.163 672,144 C 672,152.159 665.893,158.892 658,159.876 L 658,148 L 663.5,148 L 664,144 L 658,144 L 658,142 C 658,140.895 658.895,140 660,140 L 664,140 L 664,136 L 660,136 C 656.686,136 654,138.686 654,142 L 654,144 L 651,144 L 651,148 L 654,148 L 654,155.906 L 654,159.496 L 654,159.876 C 646.107,158.892 640,152.159 640,144 C 640,135.163 647.163,128 656,128 Z"></path><path d="M 736,134.076c-1.177,0.522-2.443,0.875-3.771,1.034c 1.355-0.813, 2.396-2.099, 2.887-3.632
	c-1.269,0.752-2.674,1.299-4.169,1.593c-1.198-1.276-2.904-2.073-4.792-2.073c-3.626,0-6.565,2.939-6.565,6.565
	c0,0.515, 0.058,1.016, 0.17,1.496c-5.456-0.274-10.294-2.888-13.532-6.86c-0.565,0.97-0.889,2.097-0.889,3.301
	c0,2.278, 1.159,4.287, 2.921,5.465c-1.076-0.034-2.088-0.329-2.974-0.821c-0.001,0.027-0.001,0.055-0.001,0.083
	c0,3.181, 2.263,5.834, 5.266,6.438c-0.551,0.15-1.131,0.23-1.73,0.23c-0.423,0-0.834-0.041-1.235-0.118
	c 0.836,2.608, 3.26,4.506, 6.133,4.559c-2.247,1.761-5.078,2.81-8.154,2.81c-0.53,0-1.052-0.031-1.566-0.092
	c 2.905,1.863, 6.356,2.95, 10.064,2.95c 12.076,0, 18.679-10.004, 18.679-18.68c0-0.285-0.006-0.568-0.019-0.849
	C 734.007,136.548, 735.12,135.392, 736,134.076z"></path><path d="M 794.667,128L 773.334,128 C 770.4,128, 768,130.4, 768,133.334l0,21.332 C 768,157.602, 770.4,160, 773.334,160l 21.333,0 
	C 797.601,160, 800,157.602, 800,154.666L 800,133.334 C 800,130.4, 797.601,128, 794.667,128z M 794.189,138.682
	c 0.010,0.229, 0.015,0.46, 0.015,0.692c0,7.069-5.288,15.221-14.958,15.221c-2.969,0-5.732-0.886-8.059-2.404
	c 0.411,0.050, 0.83,0.075, 1.254,0.075c 2.463,0, 4.73-0.855, 6.529-2.29c-2.3-0.043-4.242-1.59-4.911-3.715
	c 0.321,0.063, 0.65,0.096, 0.989,0.096c 0.479,0, 0.944-0.066, 1.385-0.188c-2.405-0.492-4.217-2.654-4.217-5.245
	c0-0.023,0-0.045, 0.001-0.067c 0.709,0.401, 1.52,0.641, 2.381,0.669c-1.411-0.959-2.339-2.597-2.339-4.453
	c0-0.98, 0.259-1.899, 0.712-2.689c 2.593,3.237, 6.467,5.366, 10.836,5.589c-0.090-0.392-0.136-0.8-0.136-1.219
	c0-2.954, 2.354-5.349, 5.257-5.349c 1.512,0, 2.879,0.65, 3.838,1.689c 1.198-0.24, 2.323-0.685, 3.338-1.298
	c-0.393,1.249-1.226,2.298-2.311,2.96c 1.063-0.129, 2.077-0.417, 3.019-0.842C 796.108,136.986, 795.216,137.928, 794.189,138.682
	z"></path><path d="M 848,128C 839.163,128, 832,135.163, 832,144s 7.163,16, 16,16s 16-7.163, 16-16S 856.837,128, 848,128z M 857.195,139.284
	c 0.009,0.203, 0.014,0.408, 0.014,0.614c0,6.269-4.772,13.499-13.499,13.499c-2.679,0-5.173-0.785-7.273-2.132
	c 0.371,0.044, 0.749,0.066, 1.132,0.066c 2.223,0, 4.268-0.759, 5.892-2.031c-2.076-0.038-3.828-1.41-4.432-3.295
	c 0.29,0.055, 0.587,0.085, 0.893,0.085c 0.433,0, 0.852-0.058, 1.25-0.166c-2.17-0.436-3.806-2.353-3.806-4.652
	c0-0.020,0-0.040, 0.001-0.060c 0.64,0.355, 1.371,0.569, 2.149,0.593c-1.273-0.851-2.111-2.303-2.111-3.949
	c0-0.869, 0.234-1.685, 0.642-2.385c 2.34,2.87, 5.836,4.759, 9.779,4.957c-0.081-0.347-0.123-0.709-0.123-1.081
	c0-2.62, 2.124-4.744, 4.744-4.744c 1.365,0, 2.598,0.576, 3.463,1.498c 1.081-0.213, 2.096-0.608, 3.013-1.151
	c-0.354,1.108-1.107,2.038-2.086,2.625c 0.96-0.115, 1.874-0.37, 2.725-0.747
	C 858.927,137.779, 858.122,138.615, 857.195,139.284z"></path><path d="M 900.259,151.467c-2.35,0-4.259,1.917-4.259,4.252c0,2.349, 1.909,4.244, 4.259,4.244
		c 2.358,0, 4.265-1.895, 4.265-4.244C 904.525,153.383, 902.618,151.467, 900.259,151.467zM 896.005,138.873l0,6.133 c 3.993,0, 7.749,1.562, 10.577,4.391c 2.825,2.822, 4.384,6.595, 4.384,10.603l 6.16,0 
		C 917.125,148.349, 907.648,138.873, 896.005,138.873zM 896.012,128l0,6.136 c 14.243,0, 25.836,11.604, 25.836,25.864L 928,160 C 928,142.36, 913.648,128, 896.012,128z"></path><path d="M 986,132L 966,132 c-3.3,0-6,2.7-6,6l0,12 c0,3.3, 2.7,6, 6,6l 20,0 c 3.3,0, 6-2.7, 6-6L 992,138 C 992,134.7, 989.3,132, 986,132z
	 M 972,152L 972,136 l 10,8L 972,152z"></path><path d="M0,201.637l 1.3,1.704c0,0, 2.68-2.113, 3.574-1.056c 0.893,1.056, 4.304,13.811, 5.443,16.164
	c 0.994,2.063, 3.735,4.791, 6.741,2.843c 3.004-1.948, 12.995-10.478, 14.783-20.55
	c 1.787-10.070-12.023-7.96-13.485,0.813c 3.656-2.195, 5.607,0.892, 3.737,4.387
	c-1.867,3.491-3.574,5.769-4.467,5.769c-0.892,0-1.578-2.337-2.6-6.42c-1.056-4.222-1.050-11.827-5.441-10.965
	C 5.443,195.137,0,201.637,0,201.637z"></path><path d="M 90.666,192L 69.334,192 C 66.4,192, 64,194.401, 64,197.334l0,21.332 C 64,221.602, 66.4,224, 69.334,224l 21.332,0 
	C 93.6,224, 96,221.602, 96,218.666L 96,197.334 C 96,194.401, 93.6,192, 90.666,192z M 89.402,205.691
	c-1.061,5.978-6.991,11.040-8.774,12.197c-1.784,1.156-3.411-0.463-4.001-1.687
	c-0.675-1.397-2.7-8.967-3.23-9.594c-0.53-0.626-2.121,0.627-2.121,0.627l-0.772-1.012
	c0,0, 3.231-3.858, 5.689-4.34c 2.606-0.511, 2.603,4.002, 3.229,6.508c 0.606,2.424, 1.014,3.811, 1.543,3.811
	c 0.53,0, 1.543-1.352, 2.652-3.424c 1.111-2.074-0.048-3.907-2.218-2.603C 82.267,200.966, 90.463,199.714, 89.402,205.691z"></path><path d="M 146.001,206 L 146.001,213.318 C 146.001,215.175 145.977,216.245 146.174,216.771 C 146.369,217.295 146.859,217.838 147.392,218.153 C 148.101,218.577 148.909,218.789 149.821,218.789 C 151.441,218.789 152.398,218.575 154,217.523 L 154,222.333 L 154,222.333 C 152.634,222.976 151.442,223.352 150.334,223.612 C 149.224,223.87 148.026,224 146.738,224 C 145.274,224 144.411,223.816 143.288,223.448 C 142.164,223.077 141.204,222.548 140.412,221.869 C 139.617,221.184 139.068,220.456 138.76,219.686 C 138.453,218.917 138.301,217.799 138.301,216.335 L 138.301,205.113 L 134.006,205.113 L 134.006,200.582 C 135.263,200.174 136.667,199.588 137.562,198.827 C 138.46,198.063 139.179,197.149 139.721,196.079 C 140.265,195.012 140.638,193.65 140.842,192 L 146.001,192 L 146.001,200 L 154,200 L 154,206 L 146.001,206 Z"></path><path d="M 218.668,192L 197.334,192 C 194.4,192, 192,194.4, 192,197.334l0,21.332 C 192,221.602, 194.4,224, 197.334,224L 218.668,224 
	C 221.602,224, 224,221.602, 224,218.666L 224,197.334 C 224,194.4, 221.601,192, 218.668,192z M 214.866,217.771
	c-0.942,0.443-1.798,0.756-2.563,0.936c-0.765,0.178-1.593,0.267-2.481,0.267c-1.010,0-1.605-0.127-2.381-0.381
	c-0.775-0.256-1.438-0.621-1.984-1.090c-0.549-0.473-0.928-0.975-1.14-1.506c-0.212-0.531-0.317-1.303-0.317-2.313L 204,205.941 
	l-3,0 l0-3.127 c 0.867-0.281, 1.873-0.685, 2.49-1.211c 0.62-0.527, 1.116-1.158, 1.49-1.896
	c 0.375-0.736, 0.633-1.676, 0.773-2.815l 3.141,0 L 208.895,202 L 214,202 l0,3.941 l-5.106,0 l0,5.662 c0,1.281-0.017,2.020, 0.119,2.383
	c 0.135,0.361, 0.473,0.736, 0.841,0.953c 0.489,0.293, 1.047,0.439, 1.676,0.439c 1.118,0, 2.231-0.363, 3.336-1.090L 214.866,217.771 
	L 214.866,217.771z"></path><path d="M 283,202c-1.1,0-2,0.9-2,2l0,8 c0,1.1, 0.9,2, 2,2s 2-0.9, 2-2L 285,204 C 285,202.9, 284.1,202, 283,202zM 259,202c-1.1,0-2,0.9-2,2l0,8 c0,1.1, 0.9,2, 2,2s 2-0.9, 2-2L 261,204 C 261,202.9, 260.1,202, 259,202zM 262,215c0,1.657, 1.343,3, 3,3l 1,0 l0,4 c0,1.1, 0.9,2, 2,2s 2-0.9, 2-2l0-4 l 2,0 l0,4 c0,1.1, 0.9,2, 2,2s 2-0.9, 2-2
		l0-4 l 1,0 c 1.657,0, 3-1.343, 3-3L 280,204 L 262,204 L 262,215 zM 274.706,194.797l 1.266-2.431c 0.064-0.122, 0.016-0.274-0.106-0.337s-0.274-0.016-0.337,0.106l-1.285,2.468
		C 273.237,194.214, 272.144,194, 271,194c-1.144,0-2.237,0.214-3.244,0.603L 266.472,192.134c-0.064-0.122-0.215-0.17-0.337-0.106
		s-0.17,0.215-0.106,0.337l 1.266,2.432c-2.832,1.282-4.883,3.987-5.238,7.203l 17.889,0 
		C 279.589,198.784, 277.538,196.079, 274.706,194.797z M 267,200.45c-0.801,0-1.45-0.649-1.45-1.45c0-0.801, 0.649-1.45, 1.45-1.45
		s 1.45,0.649, 1.45,1.45C 268.45,199.801, 267.801,200.45, 267,200.45z M 275,200.45c-0.801,0-1.45-0.649-1.45-1.45
		c0-0.801, 0.649-1.45, 1.45-1.45s 1.45,0.649, 1.45,1.45C 276.45,199.801, 275.801,200.45, 275,200.45z"></path><path d="M 332.882,207.997c-1.491-0.766-2.94-1.155-4.309-1.155c-0.186,0-0.373,0.006-0.561,0.022
		c-1.746,0.144-3.341,0.605-4.367,0.963c-0.272,0.1-0.551,0.205-0.838,0.322L 320,217.881
		c 1.928-0.714, 3.634-1.061, 5.196-1.061c 2.526,0, 4.36,0.944, 5.875,1.916c 0.718-2.435, 2.439-8.315, 2.953-10.073
		C 333.65,208.436, 333.271,208.208, 332.882,207.997zM 336.511,210.471l-2.826,9.817c 0.839,0.48, 3.659,2.002, 5.819,2.002c 1.744,0, 3.695-0.447, 5.964-1.369
		l 2.699-9.437c-1.832,0.591-3.59,0.891-5.233,0.891C 339.934,212.376, 337.835,211.404, 336.511,210.471zM 329.151,203.525c 2.41,0.025, 4.192,0.944, 5.669,1.891l 2.898-9.917c-0.611-0.35-2.213-1.222-3.371-1.519
		c-0.762-0.178-1.563-0.269-2.413-0.269c-1.619,0.030-3.387,0.436-5.403,1.244l-2.764,9.706
		c 2.025-0.764, 3.77-1.136, 5.378-1.136C 329.148,203.525, 329.151,203.525, 329.151,203.525zM 352,198.191c-1.838,0.714-3.631,1.077-5.345,1.077c-2.865,0-4.978-0.994-6.347-1.949L 337.435,207.264
		c 1.93,1.241, 4.009,1.871, 6.191,1.871c 1.78,0, 3.623-0.427, 5.483-1.272l-0.006-0.069l 0.117-0.028L 352,198.191z"></path><path d="M 384.011,208 L 384,198.248 L 396,196.618 L 396,208 ZM 398,196.328 L 413.996,194 L 413.996,208 L 398,208 ZM 414,210 L 413.996,224 L 398,221.75 L 398,210 ZM 396,221.495 L 384.010,219.851 L 384.009,210 L 396,210 Z"></path><path d="M 472,208L 460,208 l0,4 c0,2.209, 1.791,4, 4,4l 2,0 l 3,0 l 3,0 c 2.209,0, 4,1.791, 4,4s-1.791,4-4,4l-3,0 l-3,0 l-2,0 
	C 457.373,224, 452,218.627, 452,212L 452,200 L 452,198 L 452,196 c0-2.209, 1.791-4, 4-4s 4,1.791, 4,4l0,2 l0,2 l 12,0 c 2.209,0, 4,1.791, 4,4S 474.209,208, 472,208z"></path><path d="M 540.831,211.019l-2.84-2.841L 537.991,223 c0,0.553-0.446,1-0.999,1l-2.997,0 l0,0l-0.999,0 
	c-0.553,0-0.999-0.447-0.999-1l0-1.999 l0-0.999 l0-2.999 l0-5.997 c0-0.553-0.447-1-1-1l-5.995,0 c-0.552,0-0.999,0.447-0.999,1l0,5.997 l0,3.998 l0,1 
	L 524.003,223 c0,0.553-0.448,1-0.999,1l-1,0 l0,0L 519.008,224 c-0.552,0-1-0.447-1-1L 518.008,208.178 l-2.84,2.841L 512,207.849L 527.842,192L 528,192.158L 528.158,192
	l 7.835,7.839L 535.993,194.013 l 3.997,0 l0,9.825 L 544,207.849L 540.831,211.019z"></path><path d="M 592,224C 583.164,224, 576,216.836, 576,208C 576,199.164, 583.164,192, 592,192c 8.836,0, 16,7.164, 16,16
	C 608,216.836, 600.836,224, 592,224z M 604.968,206.659c 0.026-0.013, 0.040-0.035, 0.050-0.070c 0.021,0.111, 0.072,0.209, 0.154,0.281
	c 0.002,0.010-0.003,0.008, 0.002,0.022c 0.008,0, 0.014-0.006, 0.021-0.006C 605.279,206.954, 605.383,207, 605.5,207c 0.18,0, 0.33-0.1, 0.418-0.241
	c 0.006,0.007, 0.016,0.016, 0.021,0.024c-0.001-0.016-0.003-0.032-0.005-0.048C 605.973,206.664, 606,206.586, 606,206.5
	c0-0.276-0.225-0.5-0.5-0.5c-0.176,0-0.322,0.096-0.412,0.232c-0.004-0.003,0-0.015-0.011-0.011
	c 0.013-0.038-0.022-0.135-0.077-0.239L 605,206.5 C 605,206.557, 604.984,206.608, 604.968,206.659z M 581.992,206.509c0-0.151-0.344-0.408-0.433-0.408
	c0-0.027-0.14-0.335-0.193-0.335c0-0.104-0.365-0.571-0.423-0.367c-0.038,0.132, 0.279,0.31, 0.279,0.463
	c 0.059,0, 0.307,0.47, 0.356,0.552c 0.542,0.916-0.405,0.29-0.405-0.098c-0.121-0.060-0.312-0.521-0.312-0.647
	c-0.071-0.057-0.281-0.502-0.264-0.502c0-0.292-0.161-0.432-0.481-0.432c-0.015-0.029-0.284-0.407-0.289-0.407
	c0-0.12-0.216-0.492-0.336-0.551c0-0.249-0.128-0.556-0.071-0.814c0-0.271-0.014-0.578-0.106-0.856C 578.479,203.9, 578,205.892, 578,208
	c0,6.041, 3.834,11.174, 9.196,13.137c 0.006-0.496, 0.043-1.090, 0.156-1.090c0-0.074, 0.063-0.384, 0.12-0.384c0-0.19, 0.023-0.419,0-0.647
	c-0.071-0.143, 0.094-0.326, 0.144-0.551c 0.277-0.139, 0.081-1.533, 0.29-1.533c0-0.697, 0.156-1.103, 0.047-1.749
	c 0.053,0-0.315-0.391-0.312-0.384c-0.353,0-0.6-0.566-0.6-0.814c-0.034-0.109-0.121-0.272-0.121-0.407
	c 0.081,0-0.505-0.856-0.505-0.839c-0.31-0.172, 0.017-0.412, 0.048-0.694c-0.269-0.089, 0.003-0.815, 0.12-0.815
	c 0.012-0.092, 0.060-0.155, 0.145-0.191c 0.060,0.239, 0.339-0.119, 0.12-0.119c0-0.158-0.018-0.496,0-0.575
	c0-0.244-0.216-0.722-0.384-0.216c-0.18-0.089-0.634-0.073-0.673-0.359c 0.028-0.141-0.259-0.429-0.36-0.479
	c 0.094-0.246-0.487-0.575-0.697-0.575c0-0.053-0.111-0.029-0.144-0.096c-0.214,0-0.263-0.288-0.505-0.288
	c-0.279,0-0.56-0.191-0.817-0.191c-0.086-0.171-0.485-0.104-0.577-0.288c-0.209,0-0.291-0.396-0.297-0.542
	C 582.385,207.131, 582.242,206.509, 581.992,206.509z M 602.248,198.484C 602.246,198.49, 602.25,198.486, 602.24,198.506c 0.015,0, 0.033,0.017, 0.050,0.024
	C 602.275,198.515, 602.262,198.5, 602.248,198.484z M 602.549,198.815c 0.035,0.068, 0.061,0.131, 0.053,0.17c 0.035,0.001, 0.052-0.018, 0.080-0.025
	C 602.639,198.911, 602.592,198.865, 602.549,198.815z M 603.418,203.371c 0.016-0.432-0.36-0.36-0.479-0.6c-0.124,0-0.169-0.096-0.337-0.096
	c-0.109-0.037-0.195-0.011-0.258,0.078c-0.257,0.098-0.102-0.125-0.295-0.125c 0.009-0.247-0.089-0.315-0.361-0.288
	c-0.156,0.352-0.396,0.563-0.36,0.959c 0.115,0.026, 0.095,0.052, 0.072,0.167c 0.153,0.008, 1.081-0.048, 1.081-0.144
	c 0.032,0, 0.193,0.331, 0.193,0.048c 0.129,0, 0.197,0.303, 0.505,0.215C 603.179,203.647, 603.693,203.371, 603.418,203.371z M 603.467,208.474
	c 0.018-0.088-0.044-0.127-0.096-0.216c 0.137,0-0.433-1.057-0.433-1.222c-0.087-0.043-0.198-0.345-0.218-0.455
	c-0.117-0.078-0.238-0.334-0.288-0.479c-0.119-0.079-0.409-0.433-0.456-0.599c 0.172,0.019, 0.432,0.054, 0.432-0.168
	c-0.116,0-0.133-0.143-0.023-0.143c-0.036-0.147, 0.078-0.253, 0.103-0.368c 0.030-0.139, 0.089-0.353, 0.089-0.519
	c-0.165,0-0.205,0.028-0.336,0.072c0,0.097-0.293-0.024-0.336-0.024c-0.063-0.126-0.52,0.164-0.648-0.096
	c-0.207-0.187-0.151-0.331-0.218-0.595c-0.034-0.134-0.217-0.142-0.328-0.164c-0.313-0.061-0.087,0.373-0.104,0.472
	c 0.192,0-0.121,0.238-0.121,0.359c-0.324-0.070-0.216-0.431-0.407-0.527c-0.057-0.096-0.012-0.168-0.145-0.168
	c0-0.128, 0.068-0.36-0.072-0.407c0-0.062-0.272-0.087-0.312-0.168c-0.172,0-0.572-0.65-0.695-0.431
	c-0.077,0.14, 0.065,0.174, 0.094,0.288c 0.249-0.049, 0.225,0.41, 0.529,0.359c0,0.064, 0.008,0.129, 0.023,0.192
	c 0.225-0.053, 0.199,0.167, 0.312,0.167c-0.082,0.109-0.342-0.174-0.271,0.064c 0.041,0.138, 0.018,0.256-0.161,0.391
	c0-0.149-0.012-0.551-0.168-0.551c-0.106-0.212-0.421-0.161-0.554-0.359c-0.108,0-0.15-0.336-0.336-0.359
	c-0.035,0.049-0.166,0.096-0.217,0.096c-0.101,0.203-0.672,0.021-0.672,0.048c-0.009,0.002-0.32,0.762-0.338,0.862
	c-0.035,0.215-0.208,0.219-0.26,0.423c-0.026,0.102-0.653,0.054-0.653,0.129c-0.271-0.090-0.505-0.28-0.505-0.575
	c-0.022,0, 0.051-0.753, 0.097-0.863c 0.055,0.015, 0.066,0.034, 0.097,0.096c 0.166-0.062, 0.553,0.041, 0.553-0.144
	c 0.161,0.004, 0.209,0.068, 0.144,0.192c 0.15,0.028, 0.409,0.066, 0.409-0.144c-0.088,0-0.097-0.008-0.097-0.096
	c 0.288-0.299-0.216-0.569-0.216-0.718c-0.102-0.034-0.31-0.255-0.162-0.172c 0.125,0.069, 0.582,0.212, 0.402-0.092
	c 0.012-0.004, 0.020-0.012, 0.023-0.023c 0.051,0.036, 0.266,0.257, 0.266,0.048c 0.059,0, 0.287-0.144, 0.096-0.144
	c 0.018-0.108, 0.014-0.198, 0.023-0.264c 0.305,0.164, 0.135-0.112, 0.289-0.215c0,0.199, 0.164-0.096, 0.264-0.096
	c 0.119-0.177, 0.391-0.040, 0.457-0.24c-0.147-0.048-0.12-0.416-0.12-0.55c 0.177,0.029, 0.374-0.239, 0.401-0.055
	c 0.010,0.071, 0.019,0.267, 0.055,0.294c 0.263,0.138, 0.193-0.079, 0.193-0.215c-0.088,0-0.205-0.308-0.217-0.456
	c-0.072,0.010-0.188,0.040-0.217,0.095c-0.262,0-0.44-0.095-0.648-0.095c-0.016-0.032-0.266-0.312-0.24-0.312
	c-0.146-0.251, 0.146-0.178, 0.192-0.19c0-0.238, 0.991-0.196, 1.034-0.576c-0.326,0, 0.336-0.552, 0.336-0.55
	c 0.221-0.189, 0.338-0.352, 0.613-0.373c 0.116-0.008, 1.406-0.364, 1.406-0.203c 0.052,0.002, 0.224,0.004, 0.402,0.010
	C 599.016,195.43, 595.679,194, 592,194c-3.563,0-6.806,1.342-9.277,3.535c 0.022,0.050, 0.039,0.098, 0.038,0.132
	C 582.892,197.658, 583.080,197.574, 583.122,197.74C 583.057,197.739, 582.992,197.731, 582.93,197.715c 0.046,0.371-0.162,0.144-0.336,0.144
	c0-0.009-0.077-0.040-0.159-0.062c-0.053,0.050-0.109,0.097-0.162,0.147C 582.279,197.96, 582.27,197.961, 582.28,197.979
	c 0.056,0, 0.027,0.087, 0.187,0.14C 582.652,198.182, 582.855,198.217, 583.050,198.248c 0.158,0.025, 0.249-0.029, 0.384-0.029
	c0-0.020, 0.33-0.167, 0.097-0.167c 0.032-0.132-0.027-0.165-0.169-0.167c 0.012-0.14, 0.345-0.048, 0.481-0.048
	c 0.104-0.175, 0.003-0.154, 0.095-0.313c 0.11-0.195, 0.241-0.026, 0.313-0.213C 584.36,197.351, 584.457,197.41, 584.492,197.548
	C 584.579,197.62, 585.021,198.272, 585.021,197.811C 585.179,197.864, 585.258,198.16, 585.261,198.315c 0.287-0.042, 0.312-0.257, 0.312-0.48
	c 0.066,0-0.024-0.107-0.024-0.144C 585.656,197.652, 585.79,197.793, 585.79,197.644c 0.046,0, 0.048,0.046, 0.048,0.096
	c 0.149,0.029, 0.245-0.017, 0.336,0.015c 0.063,0.022, 0.031,0.349, 0.002,0.464c-0.036,0.146-0.315,0.148-0.315,0.216
	c-0.316,0.236, 0.373,0.359, 0.481,0.503c-0.065,0-0.312-0.032-0.312-0.047c-0.156,0-0.534,0.165-0.673,0.047
	c 0.194,0, 0.259-0.233, 0.289-0.455c-0.179-0.067-0.39,0.043-0.44,0.221C 585.122,198.998, 584.927,198.692, 584.829,198.89
	C 584.791,198.902, 584.444,199.063, 584.444,199.009c-0.39,0.055-0.288,0.386-0.288,0.743C 584.311,199.845, 584.626,200.11, 584.612,200.255
	C 584.962,200.317, 585.090,200.354, 585.405,200.399c 0.026,0.051, 0.13,0.099, 0.193,0.119c0,0.206, 0.187,0.169, 0.36,0.169
	c0-0.263, 0.306,0.219, 0.336,0.311c-0.042,0, 0.072,0.269, 0.096,0.36c-0.048-0.017-0.063,0-0.048,0.048
	c 0.152,0.056, 0.393,0.040, 0.433-0.12c-0.146,0-0.097-0.167-0.097-0.264c-0.15-0.1-0.127-0.293, 0.024-0.335
	c0,0.136, 0.495-0.085, 0.216-0.191c 0.068-0.153, 0.114-0.388, 0.003-0.521c-0.071-0.084-0.16,0-0.195-0.126
	c 0.189-0.047, 0.050-0.407, 0.048-0.575c 0.060-0.023, 0.216,0.038, 0.216,0c 0.185,0, 0.493,0.234, 0.601-0.049
	c 0.309,0.141, 0.063,0.275, 0.385,0.168c0,0.076, 0.363,0.431, 0.409,0.431c0,0.017-0.009,0.12, 0.071,0.12
	c0,0.077-0.048-0.044-0.048,0.095c 0.045,0.005, 0.289,0.049, 0.289-0.047c 0.155,0, 0.264-0.19, 0.264-0.335
	c 0.097-0.063, 0.267,0.527, 0.384,0.527c 0.086,0.134, 0.361,0.329, 0.361,0.455c 0.058,0.059, 0.119,0.043, 0.119,0.216
	c 0.073,0, 0.217-0.287, 0.217-0.024c 0.068,0, 0.266,0.146, 0.289,0.263c-0.173,0-0.009,0.168-0.098,0.168
	c0,0.166-0.371,0.034-0.455,0.024c-0.115,0.515-0.809,0.145-1.229,0.278c-0.221,0.070-0.648,0.557-0.671,0.8
	c 0.268,0.003, 0.386-0.232, 0.625-0.312c 0.195,0, 0.233-0.118, 0.409-0.167c0,0.049, 0.048,0.023, 0.048,0.072
	c-0.342,0-0.134,0.221-0.034,0.382c 0.062,0.1, 0.133,0.148, 0.212,0.179c-0.033,0.058-0.060,0.116-0.081,0.181
	c0,0.001-0.001,0-0.001,0.001c-0.065,0.022-0.192,0.069-0.217,0.12c-0.387,0.043-0.196,0.017-0.17-0.076
	c 0.014,0.033, 0.153,0.003, 0.147,0.004c-0.023-0.116-0.058-0.1-0.024-0.167c-0.21,0-0.312,0.096-0.481,0.096
	c-0.028,0.057-0.175,0.192-0.24,0.192c-0.049,0.148-0.16,0.417-0.289,0.503c0-0.039-0.342,0.215-0.312,0.215
	c-0.076,0.123-0.159,0.119-0.193,0.311c-0.023,0.012-0.12,0.333-0.12,0.383c-0.149,0.099-0.204,0.503-0.457,0.503
	c-0.155,0.308-0.433,0.267-0.433,0.671c 0.094,0.096, 0.13,0.521, 0.159,0.657c 0.036,0.169, 0.092,0.345-0.134,0.349
	c-0.016-0.025-0.174-0.264-0.145-0.264c0-0.099-0.121-0.416-0.192-0.515c-0.095-0.133-0.271,0.021-0.409-0.037
	c-0.059-0.118-0.458-0.144-0.6-0.144c 0.023,0.089, 0.088,0.117, 0.096,0.216c-0.118,0.048-0.186,0.102-0.308,0.085
	c-0.209-0.029-0.184-0.192-0.414-0.169c-0.368,0.037-0.625,0.342-0.625,0.707c-0.041,0-0.041,0.719,0,0.719
	c0,0.203, 0.168,0.35, 0.168,0.503c 0.163,0, 0.346,0.359, 0.505,0.359c 0.018,0.127-0.080,0.147, 0.192,0.145
	c0-0.014, 0.148-0.093, 0.168-0.192c-0.188-0.046-0.001-0.288, 0.12-0.335c0,0.171, 0.24-0.057, 0.24-0.072
	c 0.027-0.011, 0.265-0.096, 0.265-0.096c0-0.194, 0.181,0.019, 0.048,0.096c-0.13,0-0.12,0.216-0.192,0.216
	c-0.031,0.154-0.092,0.288-0.128,0.438c-0.046,0.185, 0.104,0.204, 0.056,0.377c 0.191,0.036, 0.384,0.001, 0.577,0
	c 0.001-0.034-0.006-0.067-0.024-0.096c 0.279,0, 0.024,0.527, 0.193,0.527c0,0.199, 0.096,0.354, 0.096,0.479
	c 0.13,0.086, 0.208,0.201, 0.168,0.359c 0.16,0.021, 0.504,0.062, 0.504-0.144c 0.243,0, 0.26,0.165, 0.242,0.335
	c 0.484,0, 0.181-0.479, 0.383-0.479c 0.019-0.079, 0.052-0.093, 0.099-0.041c 0.099,0.053, 0.174-0.099, 0.253-0.147
	c 0.025-0.017, 0.113-0.068, 0.129-0.068c 0.068,0.041, 0.074,0.029, 0.104,0.075c 0.132-0.001, 0.265-0.075, 0.378-0.153
	c 0.173,0.021, 0.117,0.393, 0.441,0.416c 0.13,0.009, 0.431,0.045, 0.543-0.032c 0.028-0.019, 0.131,0.065, 0.142,0.101
	c 0.108,0, 0.1,0.094, 0.146,0.092c 0.011,0.021, 0.027,0.029, 0.049,0.023c 0.014,0.041, 0.1,0.053, 0.145,0.167
	c0,0.104, 0.216,0.122, 0.216,0.191c 0.155,0.078-0.053,0.099, 0.185,0.171c 0.131,0.041, 0.252,0.107, 0.393,0.117
	c 0.045-0.171, 0.191,0.023, 0.265,0.023c 0.038,0.078, 0.058,0.019, 0.095,0.096c 0.223,0.186, 0.076,0.114, 0.168,0.312
	c 0.107,0.070, 0.141,0.314, 0.17,0.455c-0.086,0-0.025,0.329-0.025,0.36c-0.104,0, 0.266,0.197, 0.266-0.049
	c 0.152,0.025, 0.252,0.191, 0.36,0.191c-0.063,0.145, 0.168,0.254, 0.168,0.025c 0.228,0.023, 0.167,0.363, 0.145,0.479
	c 0.169,0, 0.218-0.094, 0.362-0.112C 592.629,212.072, 592.803,212, 593,212c 0.553,0, 1,0.447, 1,1c0,0.498-0.371,0.893-0.848,0.969
	c-0.064,0.073-0.122,0.136-0.126,0.136c0,0.048-0.011,0.526-0.025,0.526c0,0.096-0.073,0.623-0.144,0.623
	c0,0.271-0.177,0.32-0.24,0.575c-0.146,0.108-0.541,0.288-0.602,0.407c-0.113,0-0.197,0.096-0.312,0.096
	c-0.016,0.033-0.261,0.264-0.217,0.264c-0.018,0.17, 0.013,0.57-0.079,0.682c-0.062,0.074-0.151,0.066-0.112,0.182
	c-0.135,0, 0.008,0.096-0.205,0.096c-0.134,0-0.373,0.191-0.38,0.353c-0.009,0.198-0.062,0.341-0.232,0.462
	c0,0.068-0.312,0.088-0.312,0.264c 0.029,0,0,0.326,0,0.359c-0.093-0.003-0.321,0.090-0.36,0.167c-0.314,0-0.276,0.032-0.48,0.168
	c0,0.042-0.029,0.191-0.072,0.191c0,0.243-0.173,0.022-0.313,0.145c 0.055,0, 0.125,0.239, 0.096,0.239
	c0,0.211-0.131,0.229-0.264,0.384c-0.063,0.042-0.123,0.216-0.168,0.216c0,0.142-0.071,0.271-0.071,0.407
	c 0.030,0, 0.002,0.061, 0.023,0.118c 0.067-0.019, 0.069-0.095, 0.096-0.095c0-0.12, 0.191,0.071, 0.072,0.071
	c-0.099,0.15-0.206,0.153-0.265,0.36c-0.060,0-0.112,0.058-0.156,0.126C 589.482,221.812, 590.718,222, 592,222
	c 4.924,0, 9.246-2.548, 11.742-6.393c 0.015-0.354, 0.070-0.692, 0.109-0.809c 0.098,0.072, 0.171,0.207, 0.24,0
	c-0.173-0.034-0.131-0.094-0.072-0.239c 0.066,0.040, 0.199,0.089, 0.307,0.082c 0.033-0.062, 0.059-0.128, 0.092-0.19
	c-0.098-0.076, 0.037-0.273, 0.084-0.177c 0.025-0.048, 0.047-0.098, 0.070-0.146c-0.011-0.003-0.008,0.004-0.024-0.001
	c0-0.087, 0.016-0.076, 0.073-0.12c 0.001,0.009,0,0.009, 0.002,0.017C 605.496,212.197, 606,210.16, 606,208c0-0.071-0.010-0.139-0.011-0.21
	c-0.026,0.098-0.075,0.204-0.144,0.228c0,0.063-0.715,0.374-0.672,0.503c-0.126,0-0.568,0.126-0.649,0.287
	c-0.089,0-0.448,0.127-0.481,0.192C 603.597,209.001, 603.682,208.474, 603.467,208.474z M 605.5,203l-0.531,0 
	c-0.004-0.005-0.008-0.006-0.012-0.013c-0.027,0-0.14-0.254-0.096-0.312c 0.043,0, 0.063,0.004, 0.086,0.006
	c-0.045-0.11-0.094-0.218-0.143-0.327c-0.108,0.074-0.203,0.168-0.352,0.177c0,0.041-0.213,0.455,0,0.455
	c0,0.008, 0.004,0.014, 0.006,0.021C 604.203,203.031, 604,203.239, 604,203.5c0,0.276, 0.224,0.5, 0.5,0.5l 0.197,0 
	c 0.012,0.091, 0.061,0.17, 0.236,0.209c 0.055,0.231, 0.467,0.313, 0.529,0.071c-0.174,0-0.117-0.167-0.102-0.28L 605.5,204 
	c 0.275,0, 0.5-0.224, 0.5-0.5C 606,203.224, 605.775,203, 605.5,203z M 604.043,209.502c 0.035,0.002, 0.266-0.004, 0.266-0.045
	c 0.209,0, 0.492-0.029, 0.697-0.097c0,0.31-0.261,0.483-0.217,0.791c-0.173,0-0.097,0.178-0.097,0.239
	c-0.112,0.069-0.129,0.195-0.264,0.264c0,0.139-0.312,0.369-0.404,0.488c-0.104,0.133-0.417,0.364-0.458,0.533
	c 0.011-0.040-0.572,0.607-0.436,0.607c0,0.121-0.164,1.078, 0.048,1.078c0,0.084, 0.181,0.887, 0.071,0.887
	c0,0.258-0.168,0.416-0.168,0.622c-0.082,0.056-0.199,0.087-0.24,0.169c-0.147,0-0.218,0.312-0.288,0.312
	c0,0.333-0.097,0.58-0.097,0.958c 0.027,0-0.192,0.539-0.192,0.574c-0.177,0.119-0.625,0.546-0.625,0.768c0,0-0.312,0.438-0.36,0.503
	c-0.094,0-0.818,0.136-0.818,0.192c-0.154,0-0.552,0.121-0.648-0.024c0-0.152-0.083-0.345-0.096-0.552
	c-0.074,0-0.086-0.311-0.168-0.311c0-0.066-0.459-0.983-0.385-0.983c0-0.095-0.082-0.407-0.096-0.407c0-0.33-0.241-0.605-0.241-0.91
	c-0.071,0-0.218-0.67-0.144-0.67c0-0.352, 0.123-0.582, 0.174-0.973c 0.057-0.429-0.027-0.69-0.102-0.993
	c-0.041,0-0.179-0.229-0.193-0.287c-0.193-0.128-0.264-0.382-0.264-0.622c 0.126-0.144, 0.176-0.685, 0.145-0.863
	c-0.243-0.115-0.34-0.072-0.602-0.072c-0.155-0.311-1.196-0.119-1.491-0.119c0,0.17-0.725-0.033-0.793-0.168
	c-0.177,0-0.528-0.376-0.528-0.551c-0.194-0.129-0.504-0.771-0.504-0.982c-0.168-0.084-0.117-0.408-0.025-0.408
	c 0.023-0.090-0.059-0.374-0.098-0.509c-0.029-0.101, 0.098-0.21, 0.098-0.33c0-0.334, 0.008-0.488, 0.195-0.845
	c 0.059-0.112, 0.134-0.217, 0.189-0.357c 0.1-0.251, 0.13-0.012, 0.265-0.236c 0.129-0.064, 0.204-0.278, 0.337-0.383
	c 0.058-0.077, 0.060-0.109,0-0.168c 0.026,0, 0.168-0.369, 0.168-0.454c 0.188-0.261, 0.055-0.142, 0.24-0.12
	c 0.068-0.074, 0.181-0.264, 0.288-0.264c 0.047-0.093, 0.165-0.144, 0.265-0.144c0,0.144, 0.392-0.047, 0.433-0.047
	c 0.067-0.135, 0.499-0.288, 0.601-0.288c0-0.164, 0.852,0.046, 0.986,0.024c0-0.024,0-0.048,0-0.072c 0.182,0.043, 0.514,0.773, 0.48,0.935
	c 0.14,0, 0.27-0.023, 0.361,0c0,0.155, 0.292,0.193, 0.425,0.2c 0.185,0.009, 0.728-0.019, 0.728-0.272c 0.143,0, 0.27,0.1, 0.242,0.263
	c 0.162,0.018, 1.125,0.037, 1.057,0.239c 0.141,0, 0.177,0.241, 0.312,0.241c-0.027,0.166, 0.168,0.599, 0.312,0.599
	c0,0.144, 0.090,0.409, 0.217,0.502c 0.068,0.206, 0.293,0.64, 0.504,0.767c-0.090,0.17, 0.137,0.31, 0.193,0.479
	c-0.013,0, 0.049,0.251, 0.119,0.288c0,0.17, 0.358,0.863, 0.554,0.863C 603.984,209.445, 603.787,209.483, 604.043,209.502z M 598.852,204.137
	c 0.037-0.143, 0.121-0.032, 0.199-0.006c 0.185,0.060, 0.121-0.003, 0.258-0.065C 599.309,204.456, 599.085,204.16, 598.852,204.137z
	 M 598.346,203.418c 0.098,0, 0.125,0.44-0.144,0.359c0-0.109-0.069-0.311, 0.073-0.311C 598.316,203.636, 598.346,203.567, 598.346,203.418z
	 M 598.227,203.131c 0.111,0.048, 0.16,0.032, 0.144-0.048c 0.146,0.048-0.019,0.152-0.048,0.264
	C 598.248,203.273, 598.271,203.247, 598.227,203.131z M 595.654,200.998c-0.236-0.061, 0.243-0.131, 0.264-0.191c-0.080,0-0.135-0.083-0.104-0.153
	c 0.036-0.083, 0.095,0.099, 0.177,0.058c 0.097-0.010, 0.288-0.155, 0.19,0.125c-0.1,0.284-0.191,0.492-0.551,0.497
	C 595.501,201.204, 595.625,201.136, 595.654,200.998z M 596.544,200.016c 0.194,0, 0.024,0.144-0.019,0.144c 0.033,0.013-0.006,0.129-0.006,0.167
	c 0.18-0.002, 0.183-0.112, 0.312-0.144c-0.027,0.161-0.207,0.192-0.031,0.33c 0.093,0.073, 0.188,0.159, 0.151,0.27
	c 0.229,0, 0.263,0.22, 0.216,0.479c 0.127,0, 0.121,0.006, 0.121-0.121c 0.123,0.034, 0.114,0.145,0,0.145
	c-0.114,0.225-0.413,0.215-0.625,0.215c-0.002-0.174-0.035-0.185-0.196-0.136c-0.22,0.067-0.048-0.175-0.044-0.295
	c 0.024,0, 0.499,0.022, 0.216-0.072c-0.015-0.258-0.073-0.335-0.312-0.335c0-0.176-0.062-0.163-0.091-0.356
	C 596.195,200.022, 596.459,200.327, 596.544,200.016z M 596.471,201.573c0,0.059-0.12,0.106-0.144,0.023c 0.023,0.008, 0.032,0, 0.023-0.023
	C 596.391,201.573, 596.432,201.573, 596.471,201.573z M 594.5,199l-1,0 C 593.224,199, 593,198.776, 593,198.5C 593,198.224, 593.224,198, 593.5,198l 1,0 
	C 594.776,198, 595,198.224, 595,198.5C 595,198.776, 594.776,199, 594.5,199z M 588.674,207.85c 0.056,0, 0.121,0.022, 0.121,0.072
	C 588.722,207.922, 588.628,207.991, 588.674,207.85z M 587.762,207.899c-0.040,0.076-0.364,0.063-0.409-0.025c 0.12,0, 0.213,0.049, 0.336,0
	c0-0.066-0.055-0.119-0.096-0.191c 0.131,0, 0.278,0.1, 0.457,0.096c0-0.111-0.049,0.024,0-0.12c 0.075,0.019, 0.256,0.191, 0.264,0.263
	C 588.051,207.894, 588.039,207.899, 587.762,207.899z M 586.704,207.324c-0.123,0-0.36-0.107-0.433-0.216c 0.119,0.005, 0.237,0.054, 0.312-0.072
	c 0.305,0.031, 0.332,0.241, 0.577,0.241c 0.046,0.081, 0.308,0.267, 0.055,0.291C 587.024,207.586, 586.784,207.482, 586.704,207.324z
	 M 586.896,207.995c-0.089,0-0.236,0.039-0.168-0.145C 586.846,207.866, 586.902,207.915, 586.896,207.995z M 587.064,207.971
	c-0.048,0.008-0.096,0.016-0.144,0.024C 586.934,207.884, 587.039,207.76, 587.064,207.971z M 587.953,209.024
	c-0.019,0.067-0.016,0.071-0.095,0.071c 0.008-0.031, 0.015-0.062, 0.023-0.095C 587.906,209.008, 587.929,209.016, 587.953,209.024z
	 M 585.79,207.036c 0.023,0.008, 0.048,0.017, 0.072,0.024c 0.031,0.119, 0.096,0.060, 0.168,0.024C 586.030,207.223, 585.708,207.263, 585.79,207.036z"></path><path d="M 656,192C 647.163,192, 640,199.164, 640,208c0,8.836, 7.163,16, 16,16s 16-7.164, 16-16
	C 672,199.164, 664.837,192, 656,192z M 656,198c 1.104,0, 2,0.896, 2,2s-0.896,2-2,2s-2-0.896-2-2S 654.896,198, 656,198z M 651,216l 3-2l 2,0 l0-8 l-2,0 l-1-2l 5,0 l0,2 l0,8 l 2,0 l 3,2
	L 651,216 z"></path><path d="M 734,216c0,0-8.25,0-10,0s 2,6, 2,6c0,1.104-0.896,2-2,2l-8,0 c-1.104,0-2-0.896-2-2
	c0,0, 3.812-6, 2-6S 706,216, 706,216c-1.104,0-2-0.896-2-2L 704,194 c0-1.104, 0.896-2, 2-2l 28,0 c 1.104,0, 2,0.896, 2,2l0,20 C 736,215.104, 735.104,216, 734,216z
	 M 720,215c 1.104,0, 2-0.896, 2-2s-0.896-2-2-2s-2,0.896-2,2S 718.896,215, 720,215z M 734,196c0-1.104-0.896-2-2-2L 708,194 C 706.896,194, 706,194.896, 706,196l0,12 
	c0,1.104, 0.896,2, 2,2l 24,0 c 1.104,0, 2-0.896, 2-2L 734,196 z"></path><path d="M 798,219l-6-5l0,5 c0,1.104-0.896,2-2,2L 770,221 c-1.104,0-2-0.896-2-2L 768,202 c0-1.104, 0.896-2, 2-2
	l 7.698,0 L 774.74,196L 769,196 C 768.448,196, 768,195.553, 768,195s 0.448-1, 1-1l 6,0 c 0.552,0, 1,0.447, 1,1l 4.072,5L 790,200 c 1.104,0, 2,0.896, 2,2l0,5 l 6-6c 1.104,0, 2,0.896, 2,2
	l0,14 C 800,218.104, 799.229,219, 798,219z M 789,202l-6,0 c-0.553,0-1,0.447-1,1s 0.447,1, 1,1l 6,0 c 0.553,0, 1-0.447, 1-1S 789.553,202, 789,202z"></path><path d="M 861.048,208.079c-0.007,0.003-0.014,0.007-0.018,0.007c0,0.005,0,0.012,0,0.016
	c-2.072,1.070-3.969,1.495-5.674,1.495c-2.581,0-4.722-0.975-6.367-2.179c-0.010-0.007-0.023-0.016-0.031-0.025L 851.95,196.057
	c 0.946,0.807, 3.086,2.317, 6.329,2.317c 1.633,0, 3.541-0.382, 5.72-1.424L 861.048,208.079z M 841.383,203.67c-0.027,0-0.053,0-0.081,0
	c-1.548,0-3.39,0.449-5.662,1.464L 838.558,193.918c 2.211-0.987, 4.010-1.385, 5.51-1.417c 0.011,0, 0.022,0, 0.034,0
	c 0.882,0, 1.679,0.115, 2.384,0.298c 1.476,0.412, 3.598,1.803, 3.598,1.803L 850.084,194.61 c-0.608,2.28-2.408,9.036-3.015,11.286
	C 845.485,204.747, 843.783,203.697, 841.383,203.67z M 840.255,206.403c 0.192-0.018, 0.383-0.024, 0.574-0.024c 1.684,0, 3.221,0.645, 4.324,1.264
	c 0.472,0.278, 0.918,0.581, 1.361,0.882c-0.392,1.471-2.458,9.191-3.066,11.448c-1.639-1.194-3.376-2.254-5.881-2.254
	c-1.521,0-3.329,0.395-5.566,1.383L 834.963,207.86c 0.337-0.15, 0.666-0.288, 0.985-0.414C 837.028,207.030, 838.566,206.558, 840.255,206.403z
	 M 854.688,212.225c 1.572,0, 3.433-0.318, 5.592-1.165L 857.434,221.95c-2.454,1.108-4.416,1.549-6.057,1.549
	c-2.593,0-6.049-2.333-6.045-2.33l 2.953-11.224C 849.184,210.73, 851.265,212.225, 854.688,212.225z"></path><path d="M 903,202l 18,0 c 0.552,0, 1-0.448, 1-1s-0.448-1-1-1L 903,200 c-0.552,0-1,0.448-1,1S 902.448,202, 903,202z
			 M 921,204L 903,204 c-0.552,0-1,0.448-1,1s 0.448,1, 1,1l 18,0 c 0.552,0, 1-0.448, 1-1S 921.552,204, 921,204z M 921,208L 903,208 
			c-0.552,0-1,0.448-1,1s 0.448,1, 1,1l 18,0 c 0.552,0, 1-0.448, 1-1S 921.552,208, 921,208z M 921,212L 903,212 c-0.552,0-1,0.448-1,1
			s 0.448,1, 1,1l 18,0 c 0.552,0, 1-0.448, 1-1S 921.552,212, 921,212z"></path><path d="M 975.996,207.457L 992,199.918L 992,196L 960,196L 960,199.906 		zM 976.004,211.879L 960,204.32L 960,220L 992,220L 992,204.344 		z"></path><path d="M 2,272c 1.105,0, 2,0.895, 2,2l0,8 c0,1.105-0.895,2-2,2L0,284 l0,4 l 16,0 l0-4 l-1.992,0 C 12.906,284, 12,283.105, 12,282l-0.004-14L0,268 
			l0,4 L 2,272 zM 4,260A4,4 1440 1 0 12,260A4,4 1440 1 0 4,260z"></path><path d="M 64,258.286A2.286,2.286 1440 1 0 68.571,258.286A2.286,2.286 1440 1 0 64,258.286zM 64,267.429A2.286,2.286 1440 1 0 68.571,267.429A2.286,2.286 1440 1 0 64,267.429zM 64,276.571A2.286,2.286 1440 1 0 68.571,276.571A2.286,2.286 1440 1 0 64,276.571zM 64,285.715A2.286,2.286 1440 1 0 68.571,285.715A2.286,2.286 1440 1 0 64,285.715zM 73.143,256L 100.569,256L 100.569,260.571L 73.143,260.571zM 73.143,265.143L 100.569,265.143L 100.569,269.715L 73.143,269.715zM 73.143,274.286L 100.569,274.286L 100.569,278.857L 73.143,278.857zM 73.143,283.429L 100.569,283.429L 100.569,288L 73.143,288z"></path></svg>